{
.appVersion = "3108";
.formatVersion = 3;
axes = (
{
name = Weight;
tag = wght;
}
);
date = "2022-02-28 16:51:29 +0000";
familyName = "TAS Print";
fontMaster = (
{
axesValues = (
300
);
guides = (
{
pos = (460,350);
},
{
pos = (192,650);
}
);
iconName = SemiLight;
id = m01;
metricValues = (
{
over = 4;
pos = 700;
},
{
over = 4;
pos = 650;
},
{
over = 4;
pos = 350;
},
{
over = -4;
},
{
over = -4;
pos = -300;
},
{
over = -16;
pos = 10;
}
);
name = "TAS Print Regular";
stemValues = (
45,
50
);
visible = 1;
},
{
axesValues = (
800
);
guides = (
{
pos = (460,350);
},
{
pos = (192,650);
}
);
iconName = Bold_Extended;
id = m002;
metricValues = (
{
over = 4;
pos = 700;
},
{
over = 4;
pos = 650;
},
{
over = 4;
pos = 350;
},
{
over = -4;
},
{
over = -4;
pos = -300;
},
{
over = -16;
pos = 10;
}
);
name = "TAS Print Extra Bold";
stemValues = (
90,
100
);
userData = {
GSOffsetHorizontal = 27;
GSOffsetKeepCompatible = 1;
GSOffsetVertical = 24;
};
}
);
glyphs = (
{
glyphname = A;
lastChange = "2022-03-01 23:01:04 +0000";
layers = (
{
layerId = m01;
name = "QBeginners Light";
shapes = (
{
closed = 1;
nodes = (
(381,625,ls),
(385,636,o),
(377,650,o),
(358,650,cs),
(336,650,o),
(335,639,o),
(328,625,cs),
(19,32,ls),
(9,12,o),
(21,0,o),
(36,0,cs),
(56,0,o),
(61,7,o),
(70,25,cs),
(379,619,l)
);
},
{
closed = 1;
nodes = (
(374,327,l),
(369,372,l),
(237,372,l),
(215,327,l)
);
},
{
closed = 1;
nodes = (
(339,563,l),
(385,19,ls),
(386,9,o),
(389,0,o),
(411,0,c),
(429,0,o),
(435,11,o),
(434,26,cs),
(382,635,l)
);
}
);
width = 504;
},
{
layerId = m002;
name = "QBeginners Light";
shapes = (
{
closed = 1;
nodes = (
(425,592,ls),
(436,619,o),
(415,648,o),
(379,648,cs),
(347,648,o),
(338,633,o),
(327,612,cs),
(41,64,l),
(23,25,o),
(50,-1,o),
(81,-1,cs),
(110,-1,o),
(123,9,o),
(137,35,cs),
(423,587,l)
);
},
{
closed = 1;
nodes = (
(424,301,l),
(413,391,l),
(249,391,l),
(206,301,l)
);
},
{
closed = 1;
nodes = (
(333,549,l),
(377,39,ls),
(380,14,o),
(396,-1,o),
(428,-1,cs),
(459,-1,o),
(478,19,o),
(476,49,cs),
(421,693,l)
);
}
);
width = 557;
}
);
metricLeft = "=N-2";
metricRight = "=N-2";
unicode = 65;
},
{
glyphname = B;
lastChange = "2022-03-01 23:01:04 +0000";
layers = (
{
layerId = m01;
shapes = (
{
closed = 1;
nodes = (
(350,325,o),
(380,367,o),
(399,475,cs),
(420,593,o),
(350,650,o),
(158,650,c),
(149,605,l),
(317,605,o),
(365,565,o),
(349,477,cs),
(336,405,o),
(319,375,o),
(119,375,c),
(111,325,l)
);
},
{
closed = 1;
nodes = (
(311,0,o),
(372,42,o),
(390,144,cs),
(412,270,o),
(274,375,o),
(119,375,c),
(112,325,l),
(256,325,o),
(357,239,o),
(341,151,cs),
(328,77,o),
(252,45,o),
(52,45,c),
(45,0,l)
);
},
{
closed = 1;
nodes = (
(178,641,o),
(172,650,o),
(153,650,cs),
(136,650,o),
(128,643,o),
(124,623,cs),
(20,31,ls),
(17,14,o),
(27,0,o),
(44,0,cs),
(58,0,o),
(66,9,o),
(70,29,cs),
(174,619,ls)
);
}
);
width = 426;
},
{
layerId = m002;
shapes = (
{
closed = 1;
nodes = (
(390,297,o),
(424,348,o),
(444,459,cs),
(466,591,o),
(380,654,o),
(171,649,c),
(154,560,l),
(327,563,o),
(358,543,o),
(344,469,cs),
(332,404,o),
(326,394,o),
(134,395,c),
(120,301,l)
);
},
{
closed = 1;
nodes = (
(346,-4,o),
(416,44,o),
(436,153,cs),
(460,294,o),
(300,406,o),
(134,394,c),
(122,300,l),
(261,311,o),
(350,242,o),
(336,168,cs),
(326,109,o),
(271,88,o),
(72,90,c),
(59,0,l)
);
},
{
closed = 1;
nodes = (
(244,633,o),
(218,649,o),
(190,649,cs),
(162,649,o),
(141,635,o),
(136,604,cs),
(39,56,l),
(35,24,o),
(57,0,o),
(89,0,cs),
(112,0,o),
(132,12,o),
(140,46,c),
(236,593,ls)
);
}
);
width = 490;
}
);
metricLeft = N;
metricRight = O;
unicode = 66;
},
{
glyphname = C;
lastChange = "2022-03-01 23:01:04 +0000";
layers = (
{
layerId = m01;
shapes = (
{
closed = 1;
nodes = (
(416,599,o),
(441,583,o),
(448,546,cs),
(451,533,o),
(470,530,o),
(482,533,cs),
(497,537,o),
(497,551,o),
(495,561,cs),
(485,619,o),
(437,649,o),
(360,649,cs),
(165,649,o),
(100,502,o),
(72,338,cs),
(69,318,o),
(48,203,o),
(48,138,cs),
(48,70,o),
(73,-4,o),
(194,-4,cs),
(293,-4,o),
(371,54,o),
(407,119,cs),
(426,153,o),
(429,165,o),
(429,171,cs),
(429,183,o),
(415,188,o),
(403,188,cs),
(387,188,o),
(380,175,o),
(366,148,cs),
(335,92,o),
(274,46,o),
(193,46,cs),
(103,46,o),
(98,99,o),
(98,137,cs),
(98,210,o),
(118,310,o),
(125,349,cs),
(147,480,o),
(201,599,o),
(360,599,cs)
);
}
);
width = 461;
},
{
layerId = m002;
shapes = (
{
closed = 1;
nodes = (
(425,554,o),
(432,549,o),
(437,525,cs),
(442,495,o),
(481,488,o),
(502,494,cs),
(529,502,o),
(538,523,o),
(534,547,cs),
(523,614,o),
(465,648,o),
(382,648,cs),
(182,648,o),
(116,497,o),
(89,341,cs),
(86,322,o),
(67,214,o),
(67,152,cs),
(67,84,o),
(95,-4,o),
(229,-4,cs),
(332,-4,o),
(413,57,o),
(450,122,cs),
(470,159,o),
(473,173,o),
(473,182,cs),
(473,209,o),
(445,222,o),
(422,222,cs),
(394,222,o),
(382,207,o),
(364,172,cs),
(337,124,o),
(293,91,o),
(228,91,cs),
(170,91,o),
(167,117,o),
(167,151,cs),
(167,216,o),
(186,307,o),
(192,343,cs),
(211,462,o),
(253,554,o),
(382,554,cs)
);
}
);
width = 522;
}
);
metricLeft = O;
metricRight = O;
unicode = 67;
},
{
glyphname = D;
lastChange = "2022-03-01 23:01:04 +0000";
layers = (
{
layerId = m01;
shapes = (
{
closed = 1;
nodes = (
(106,0,ls),
(298,0,o),
(424,128,o),
(463,351,cs),
(493,521,o),
(378,650,o),
(189,650,cs),
(153,650,l),
(148,600,l),
(193,600,ls),
(352,600,o),
(437,489,o),
(413,350,cs),
(379,155,o),
(268,50,o),
(106,50,cs),
(53,50,l),
(43,0,l)
);
},
{
closed = 1;
nodes = (
(177,637,o),
(175,650,o),
(154,650,cs),
(132,650,o),
(127,639,o),
(124,623,cs),
(19,27,ls),
(16,12,o),
(24,0,o),
(42,0,cs),
(64,0,o),
(68,15,o),
(70,25,cs),
(174,619,ls)
);
}
);
width = 463;
},
{
layerId = m002;
shapes = (
{
closed = 1;
nodes = (
(146,0,ls),
(339,0,o),
(466,129,o),
(504,345,cs),
(533,517,o),
(415,649,o),
(223,649,cs),
(165,649,l),
(155,555,l),
(227,555,ls),
(360,555,o),
(425,470,o),
(403,352,cs),
(374,178,o),
(284,94,o),
(146,94,cs),
(74,94,l),
(56,0,l)
);
},
{
closed = 1;
nodes = (
(243,635,o),
(217,649,o),
(191,649,cs),
(158,649,o),
(142,633,o),
(136,604,cs),
(40,54,l),
(33,24,o),
(55,0,o),
(87,0,cs),
(122,0,o),
(135,22,o),
(140,43,c),
(236,593,ls)
);
}
);
width = 524;
}
);
metricLeft = N;
metricRight = O;
unicode = 68;
},
{
glyphname = E;
lastChange = "2022-03-01 23:01:04 +0000";
layers = (
{
layerId = m01;
shapes = (
{
closed = 1;
nodes = (
(177,637,o),
(175,650,o),
(154,650,cs),
(132,650,o),
(127,639,o),
(124,623,c),
(19,27,l),
(16,12,o),
(24,0,o),
(42,0,cs),
(64,0,o),
(68,15,o),
(70,25,c),
(174,619,l)
);
},
{
closed = 1;
nodes = (
(379,0,ls),
(399,0,o),
(405,14,o),
(405,26,cs),
(405,38,o),
(399,50,o),
(379,50,cs),
(51,50,l),
(43,0,l)
);
},
{
closed = 1;
nodes = (
(413,328,ls),
(433,328,o),
(439,338,o),
(439,350,cs),
(439,362,o),
(433,373,o),
(413,373,cs),
(117,373,l),
(109,328,l)
);
},
{
closed = 1;
nodes = (
(485,600,ls),
(505,600,o),
(511,613,o),
(511,625,cs),
(511,637,o),
(505,650,o),
(485,650,cs),
(158,650,l),
(149,600,l)
);
}
);
width = 477;
},
{
layerId = m002;
shapes = (
{
closed = 1;
nodes = (
(241,624,o),
(227,649,o),
(190,649,cs),
(159,649,o),
(140,633,o),
(136,603,cs),
(38,53,ls),
(34,23,o),
(54,0,o),
(87,0,cs),
(120,0,o),
(135,21,o),
(140,43,cs),
(236,593,ls)
);
},
{
closed = 1;
nodes = (
(398,0,ls),
(431,0,o),
(450,23,o),
(450,48,cs),
(450,73,o),
(431,94,o),
(398,94,cs),
(71,94,l),
(57,0,l)
);
},
{
closed = 1;
nodes = (
(430,303,ls),
(462,303,o),
(481,323,o),
(481,348,cs),
(481,373,o),
(462,393,o),
(430,393,cs),
(133,393,l),
(118,303,l)
);
},
{
closed = 1;
nodes = (
(497,555,ls),
(529,555,o),
(548,577,o),
(548,602,cs),
(548,627,o),
(529,649,o),
(497,649,cs),
(171,649,l),
(155,555,l)
);
}
);
width = 532;
}
);
metricLeft = N;
metricRight = N;
unicode = 69;
},
{
glyphname = F;
lastChange = "2022-03-01 23:01:04 +0000";
layers = (
{
layerId = m01;
shapes = (
{
closed = 1;
nodes = (
(177,637,o),
(175,650,o),
(154,650,cs),
(132,650,o),
(127,639,o),
(124,623,cs),
(19,27,ls),
(16,12,o),
(24,0,o),
(42,0,cs),
(64,0,o),
(68,15,o),
(70,25,cs),
(174,619,ls)
);
},
{
closed = 1;
nodes = (
(413,328,ls),
(433,328,o),
(439,338,o),
(439,350,cs),
(439,362,o),
(433,373,o),
(413,373,cs),
(118,373,l),
(111,328,l)
);
},
{
closed = 1;
nodes = (
(485,600,ls),
(505,600,o),
(511,613,o),
(511,625,cs),
(511,637,o),
(505,650,o),
(485,650,cs),
(155,650,l),
(148,600,l)
);
}
);
width = 477;
},
{
layerId = m002;
shapes = (
{
closed = 1;
nodes = (
(241,624,o),
(227,649,o),
(190,649,cs),
(159,649,o),
(140,633,o),
(136,603,cs),
(38,53,ls),
(34,23,o),
(54,0,o),
(87,0,cs),
(120,0,o),
(135,21,o),
(140,43,cs),
(236,593,ls)
);
},
{
closed = 1;
nodes = (
(430,303,ls),
(462,303,o),
(481,323,o),
(481,348,cs),
(481,373,o),
(462,393,o),
(430,393,cs),
(133,393,l),
(120,303,l)
);
},
{
closed = 1;
nodes = (
(497,555,ls),
(529,555,o),
(548,577,o),
(548,602,cs),
(548,627,o),
(529,649,o),
(497,649,cs),
(167,649,l),
(155,555,l)
);
}
);
width = 532;
}
);
metricLeft = N;
metricRight = N;
unicode = 70;
},
{
glyphname = G;
lastChange = "2022-03-01 23:01:04 +0000";
layers = (
{
layerId = m01;
shapes = (
{
closed = 1;
nodes = (
(438,350,l),
(414,350,o),
(410,343,o),
(352,255,cs),
(315,199,o),
(212,46,o),
(157,46,cs),
(107,46,o),
(98,89,o),
(98,135,cs),
(98,200,o),
(118,310,o),
(128,364,cs),
(145,457,o),
(187,600,o),
(375,600,cs),
(417,600,o),
(441,581,o),
(448,544,cs),
(451,531,o),
(470,528,o),
(482,531,cs),
(497,535,o),
(497,549,o),
(495,559,cs),
(485,617,o),
(435,650,o),
(372,650,cs),
(151,650,o),
(97,483,o),
(72,338,cs),
(69,318,o),
(48,203,o),
(48,140,cs),
(48,70,o),
(73,-4,o),
(154,-4,cs),
(227,-4,o),
(317,112,o),
(402,240,c)
);
},
{
closed = 1;
nodes = (
(459,340,o),
(454,350,o),
(437,350,cs),
(417,350,o),
(408,342,o),
(405,323,cs),
(353,27,ls),
(351,15,o),
(354,1,o),
(374,0,cs),
(397,-1,o),
(402,16,o),
(404,27,cs),
(456,323,ls)
);
}
);
width = 475;
},
{
layerId = m002;
shapes = (
{
closed = 1;
nodes = (
(491,371,l),
(421,371,o),
(429,387,o),
(352,273,cs),
(318,220,o),
(231,91,o),
(195,91,cs),
(171,91,o),
(167,108,o),
(167,149,cs),
(167,207,o),
(186,307,o),
(195,357,cs),
(210,442,o),
(244,555,o),
(397,555,cs),
(426,555,o),
(433,549,o),
(437,523,cs),
(443,494,o),
(481,486,o),
(503,492,cs),
(531,500,o),
(540,522,o),
(534,546,cs),
(522,611,o),
(464,649,o),
(394,649,cs),
(167,649,o),
(113,476,o),
(89,340,c),
(88,323,o),
(67,214,o),
(67,154,cs),
(67,84,o),
(95,-4,o),
(192,-4,cs),
(278,-4,o),
(368,118,o),
(447,236,c)
);
},
{
closed = 1;
nodes = (
(504,358,o),
(479,372,o),
(454,372,cs),
(424,372,o),
(402,356,o),
(397,327,cs),
(349,53,ls),
(344,26,o),
(360,2,o),
(395,0,cs),
(426,-1,o),
(445,18,o),
(451,45,cs),
(499,320,ls)
);
}
);
width = 533;
}
);
metricLeft = O;
metricRight = N;
unicode = 71;
},
{
glyphname = H;
lastChange = "2022-03-01 23:01:04 +0000";
layers = (
{
layerId = m01;
shapes = (
{
closed = 1;
nodes = (
(177,637,o),
(171,650,o),
(154,650,cs),
(135,650,o),
(127,639,o),
(124,623,cs),
(19,27,ls),
(16,12,o),
(24,0,o),
(42,0,cs),
(64,0,o),
(68,15,o),
(70,25,cs),
(174,619,ls)
);
},
{
closed = 1;
nodes = (
(416,328,l),
(424,373,l),
(124,373,l),
(116,328,l)
);
},
{
closed = 1;
nodes = (
(513,638,o),
(507,650,o),
(487,650,cs),
(469,650,o),
(462,638,o),
(460,628,cs),
(355,27,ls),
(353,15,o),
(355,0,o),
(378,0,cs),
(397,0,o),
(403,13,o),
(405,22,cs),
(510,621,ls)
);
}
);
width = 477;
},
{
layerId = m002;
shapes = (
{
closed = 1;
nodes = (
(242,626,o),
(221,649,o),
(190,649,cs),
(163,649,o),
(140,634,o),
(136,603,c),
(38,53,ls),
(34,23,o),
(54,0,o),
(87,0,cs),
(120,0,o),
(135,21,o),
(140,43,cs),
(236,593,ls)
);
},
{
closed = 1;
nodes = (
(456,303,l),
(471,393,l),
(140,393,l),
(123,303,l)
);
},
{
closed = 1;
nodes = (
(551,630,o),
(529,649,o),
(498,649,cs),
(472,649,o),
(452,632,o),
(446,609,c),
(349,53,ls),
(344,23,o),
(363,0,o),
(398,0,cs),
(427,0,o),
(445,19,o),
(450,40,c),
(547,595,l)
);
}
);
width = 533;
}
);
metricLeft = N;
metricRight = N;
unicode = 72;
},
{
glyphname = I;
lastChange = "2022-03-01 23:01:04 +0000";
layers = (
{
layerId = m01;
shapes = (
{
closed = 1;
nodes = (
(177,637,o),
(174,650,o),
(154,650,cs),
(134,650,o),
(127,639,o),
(124,623,cs),
(19,27,ls),
(16,12,o),
(24,0,o),
(42,0,cs),
(64,0,o),
(67,15,o),
(69,25,cs),
(174,619,ls)
);
}
);
width = 141;
},
{
layerId = m002;
shapes = (
{
closed = 1;
nodes = (
(243,633,o),
(218,649,o),
(191,649,cs),
(161,649,o),
(142,633,o),
(136,604,cs),
(40,54,l),
(33,24,o),
(54,0,o),
(87,0,cs),
(121,0,o),
(134,21,o),
(139,43,cs),
(236,593,ls)
);
}
);
width = 221;
}
);
metricLeft = N;
metricRight = N;
unicode = 73;
},
{
glyphname = J;
lastChange = "2022-03-01 23:01:04 +0000";
layers = (
{
layerId = m01;
shapes = (
{
closed = 1;
nodes = (
(263,205,ls),
(255,157,o),
(243,105,o),
(211,76,cs),
(192,57,o),
(162,50,o),
(128,50,cs),
(102,50,o),
(79,64,o),
(62,88,cs),
(50,105,o),
(30,113,o),
(18,103,cs),
(2,90,o),
(6,77,o),
(24,55,cs),
(47,26,o),
(81,0,o),
(128,0,cs),
(179,0,o),
(216,13,o),
(243,37,cs),
(282,72,o),
(301,131,o),
(314,205,cs),
(387,623,ls),
(390,641,o),
(387,654,o),
(367,654,cs),
(347,654,o),
(340,643,o),
(337,627,cs)
);
}
);
width = 354;
},
{
layerId = m002;
shapes = (
{
closed = 1;
nodes = (
(254,218,ls),
(247,173,o),
(238,133,o),
(215,112,cs),
(200,98,o),
(184,94,o),
(156,94,cs),
(140,94,o),
(131,100,o),
(117,119,cs),
(96,149,o),
(58,155,o),
(37,137,cs),
(13,117,o),
(10,95,o),
(38,61,cs),
(61,31,o),
(101,0,o),
(156,0,cs),
(209,0,o),
(252,15,o),
(281,40,cs),
(324,80,o),
(342,139,o),
(355,210,cs),
(423,596,ls),
(430,639,o),
(403,653,o),
(377,653,cs),
(349,653,o),
(327,637,o),
(323,607,cs)
);
}
);
width = 408;
}
);
metricLeft = "=N/2";
metricRight = N;
unicode = 74;
},
{
glyphname = K;
lastChange = "2022-03-01 23:01:04 +0000";
layers = (
{
layerId = m01;
shapes = (
{
closed = 1;
nodes = (
(493,599,ls),
(505,609,o),
(510,619,o),
(512,628,cs),
(513,640,o),
(505,650,o),
(492,650,cs),
(484,651,o),
(473,647,o),
(461,637,cs),
(124,360,l),
(124,348,l),
(182,343,l)
);
},
{
closed = 1;
nodes = (
(124,356,l),
(124,345,l),
(351,19,ls),
(358,9,o),
(368,0,o),
(381,0,cs),
(391,0,o),
(401,6,o),
(404,17,cs),
(406,24,o),
(405,32,o),
(398,42,cs),
(182,354,l)
);
},
{
closed = 1;
nodes = (
(178,637,o),
(174,650,o),
(155,650,cs),
(135,650,o),
(128,639,o),
(125,623,cs),
(20,32,ls),
(17,17,o),
(25,0,o),
(43,0,cs),
(64,0,o),
(69,18,o),
(71,31,cs),
(175,619,ls)
);
}
);
width = 477;
},
{
layerId = m002;
shapes = (
{
closed = 1;
nodes = (
(521,559,ls),
(536,571,o),
(546,586,o),
(548,602,cs),
(550,628,o),
(531,648,o),
(505,649,cs),
(493,650,o),
(474,645,o),
(457,632,cs),
(136,367,l),
(136,324,l),
(225,316,l)
);
},
{
closed = 1;
nodes = (
(136,378,l),
(136,336,l),
(350,30,l),
(360,12,o),
(379,0,o),
(400,0,cs),
(422,0,o),
(444,14,o),
(449,36,cs),
(451,49,o),
(448,62,o),
(438,77,cs),
(231,374,l)
);
},
{
closed = 1;
nodes = (
(244,630,o),
(220,649,o),
(191,649,cs),
(163,649,o),
(141,633,o),
(137,603,cs),
(39,58,ls),
(35,28,o),
(55,0,o),
(88,0,cs),
(120,0,o),
(136,22,o),
(141,49,cs),
(237,593,ls)
);
}
);
width = 533;
}
);
metricLeft = N;
metricRight = N;
unicode = 75;
},
{
glyphname = L;
lastChange = "2022-03-01 23:01:04 +0000";
layers = (
{
layerId = m01;
shapes = (
{
closed = 1;
nodes = (
(177,637,o),
(174,650,o),
(154,650,cs),
(134,650,o),
(127,639,o),
(124,623,cs),
(19,27,ls),
(16,12,o),
(24,0,o),
(42,0,cs),
(64,0,o),
(67,15,o),
(69,25,cs),
(174,619,ls)
);
},
{
closed = 1;
nodes = (
(379,0,ls),
(397,0,o),
(405,14,o),
(405,26,cs),
(405,38,o),
(397,50,o),
(379,50,cs),
(53,50,l),
(42,0,l)
);
}
);
width = 477;
},
{
layerId = m002;
shapes = (
{
closed = 1;
nodes = (
(243,633,o),
(217,649,o),
(190,649,cs),
(162,649,o),
(140,633,o),
(136,603,cs),
(38,53,ls),
(34,23,o),
(54,0,o),
(87,0,cs),
(121,0,o),
(134,21,o),
(139,43,cs),
(236,593,ls)
);
},
{
closed = 1;
nodes = (
(398,0,ls),
(429,0,o),
(450,23,o),
(450,48,cs),
(450,73,o),
(429,94,o),
(398,94,cs),
(75,94,l),
(54,0,l)
);
}
);
width = 532;
}
);
metricLeft = N;
metricRight = N;
unicode = 76;
},
{
glyphname = M;
lastChange = "2022-03-01 23:01:04 +0000";
layers = (
{
layerId = m01;
shapes = (
{
closed = 1;
nodes = (
(178,630,ls),
(172,639,o),
(163,650,o),
(147,650,c),
(143,593,l),
(330,304,ls),
(335,296,o),
(341,289,o),
(351,289,c),
(362,345,l)
);
},
{
closed = 1;
nodes = (
(149,650,l),
(132,650,o),
(127,639,o),
(124,623,cs),
(19,27,ls),
(16,12,o),
(24,0,o),
(42,0,cs),
(64,0,o),
(68,16,o),
(70,28,cs),
(170,593,l)
);
},
{
closed = 1;
nodes = (
(586,0,o),
(590,15,o),
(592,25,cs),
(696,619,ls),
(699,637,o),
(694,650,o),
(680,650,c),
(637,569,l),
(542,27,ls),
(540,15,o),
(545,0,o),
(564,0,c)
);
},
{
closed = 1;
nodes = (
(350,289,l),
(362,289,o),
(369,292,o),
(378,301,cs),
(658,571,l),
(682,650,l),
(669,650,o),
(665,647,o),
(656,638,cs),
(347,340,l)
);
}
);
width = 663;
},
{
layerId = m002;
shapes = (
{
closed = 1;
nodes = (
(236,619,ls),
(222,639,o),
(200,658,o),
(158,645,c),
(153,567,l),
(329,293,ls),
(344,272,o),
(362,260,o),
(397,271,c),
(411,347,l)
);
},
{
closed = 1;
nodes = (
(207,647,l),
(170,655,o),
(142,643,o),
(136,603,cs),
(38,53,ls),
(34,23,o),
(54,0,o),
(87,0,cs),
(120,0,o),
(135,22,o),
(140,46,cs),
(233,575,l)
);
},
{
closed = 1;
nodes = (
(603,0,o),
(619,21,o),
(622,44,cs),
(719,593,ls),
(726,635,o),
(695,658,o),
(658,646,c),
(611,557,l),
(522,53,ls),
(518,26,o),
(536,0,o),
(570,0,cs)
);
},
{
closed = 1;
nodes = (
(346,270,l),
(375,264,o),
(396,267,o),
(417,285,c),
(681,540,l),
(713,645,l),
(673,653,o),
(655,650,o),
(636,631,cs),
(341,348,l)
);
}
);
width = 704;
}
);
metricLeft = N;
metricRight = N;
unicode = 77;
},
{
glyphname = N;
lastChange = "2022-03-01 23:00:42 +0000";
layers = (
{
layerId = m01;
shapes = (
{
closed = 1;
nodes = (
(184,630,ls),
(181,639,o),
(171,650,o),
(153,650,c),
(146,588,l),
(354,18,ls),
(358,8,o),
(367,0,o),
(381,0,c),
(387,74,l)
);
},
{
closed = 1;
nodes = (
(154,650,l),
(132,650,o),
(127,639,o),
(124,623,cs),
(19,27,ls),
(16,12,o),
(24,0,o),
(42,0,cs),
(64,0,o),
(68,16,o),
(70,28,cs),
(169,588,l)
);
},
{
closed = 1;
nodes = (
(402,0,o),
(404,15,o),
(406,25,cs),
(510,619,ls),
(513,637,o),
(510,650,o),
(491,650,cs),
(471,650,o),
(463,639,o),
(460,623,cs),
(364,74,l),
(380,0,l)
);
}
);
width = 477;
},
{
layerId = m002;
shapes = (
{
closed = 1;
nodes = (
(243,615,ls),
(234,640,o),
(200,658,o),
(164,644,c),
(156,565,l),
(350,32,ls),
(360,6,o),
(392,-8,o),
(425,5,c),
(433,95,l)
);
},
{
closed = 1;
nodes = (
(212,647,l),
(167,655,o),
(141,639,o),
(136,603,cs),
(38,53,ls),
(34,23,o),
(54,0,o),
(87,0,cs),
(120,0,o),
(135,22,o),
(140,46,cs),
(231,569,l)
);
},
{
closed = 1;
nodes = (
(415,-6,o),
(445,6,o),
(450,44,c),
(547,593,ls),
(554,633,o),
(529,649,o),
(502,649,cs),
(474,649,o),
(452,633,o),
(446,604,cs),
(357,92,l),
(376,3,l)
);
}
);
width = 532;
}
);
unicode = 78;
},
{
glyphname = O;
lastChange = "2022-03-01 23:00:50 +0000";
layers = (
{
layerId = m01;
shapes = (
{
closed = 1;
nodes = (
(348,-4,o),
(444,256,o),
(476,438,cs),
(496,551,o),
(440,650,o),
(308,650,cs),
(185,650,o),
(130,557,o),
(88,409,cs),
(77,369,o),
(68,322,o),
(64,278,cs),
(52,143,o),
(94,-4,o),
(197,-4,cs)
);
},
{
closed = 1;
nodes = (
(133,46,o),
(106,175,o),
(113,268,cs),
(116,310,o),
(125,355,o),
(134,388,cs),
(172,523,o),
(214,600,o),
(303,600,cs),
(438,600,o),
(435,495,o),
(424,432,cs),
(396,272,o),
(304,46,o),
(196,46,cs)
);
}
);
width = 461;
},
{
layerId = m002;
shapes = (
{
closed = 1;
nodes = (
(394,-4,o),
(486,254,o),
(517,425,cs),
(537,546,o),
(472,649,o),
(334,649,cs),
(202,649,o),
(145,549,o),
(105,408,cs),
(95,370,o),
(85,325,o),
(81,283,cs),
(69,148,o),
(113,-4,o),
(232,-4,cs)
);
},
{
closed = 1;
nodes = (
(194,91,o),
(174,187,o),
(181,270,cs),
(184,308,o),
(191,347,o),
(199,377,cs),
(234,500,o),
(264,555,o),
(330,555,cs),
(427,555,o),
(425,484,o),
(414,428,cs),
(390,282,o),
(311,91,o),
(231,91,cs)
);
}
);
width = 523;
}
);
unicode = 79;
},
{
glyphname = P;
lastChange = "2022-03-01 23:01:04 +0000";
layers = (
{
layerId = m01;
shapes = (
{
closed = 1;
nodes = (
(306,324,o),
(458,321,o),
(485,476,cs),
(506,597,o),
(372,650,o),
(158,650,c),
(158,600,l),
(362,600,o),
(448,557,o),
(435,481,cs),
(415,367,o),
(277,374,o),
(123,374,c),
(116,324,l)
);
},
{
closed = 1;
nodes = (
(177,637,o),
(175,650,o),
(154,650,cs),
(132,650,o),
(127,639,o),
(124,623,cs),
(19,27,ls),
(16,12,o),
(24,-4,o),
(42,-4,cs),
(64,-4,o),
(68,15,o),
(70,25,cs),
(174,619,ls)
);
}
);
width = 463;
},
{
layerId = m002;
shapes = (
{
closed = 1;
nodes = (
(311,301,o),
(493,287,o),
(524,460,cs),
(547,599,o),
(389,654,o),
(168,649,c),
(168,555,l),
(370,558,o),
(434,529,o),
(424,473,cs),
(408,383,o),
(294,395,o),
(138,394,c),
(126,300,l)
);
},
{
closed = 1;
nodes = (
(243,635,o),
(217,649,o),
(191,649,cs),
(158,649,o),
(142,633,o),
(136,604,cs),
(40,54,l),
(33,24,o),
(54,-4,o),
(87,-4,cs),
(123,-4,o),
(135,21,o),
(140,43,cs),
(236,593,ls)
);
}
);
width = 524;
}
);
metricLeft = N;
metricRight = O;
unicode = 80;
},
{
glyphname = Q;
lastChange = "2022-03-01 23:01:04 +0000";
layers = (
{
layerId = m01;
shapes = (
{
closed = 1;
nodes = (
(228,160,o),
(210,166,o),
(196,154,cs),
(185,146,o),
(187,133,o),
(198,117,cs),
(302,-34,ls),
(312,-49,o),
(328,-58,o),
(341,-50,cs),
(354,-43,o),
(355,-24,o),
(346,-11,cs),
(238,146,ls)
);
},
{
closed = 1;
nodes = (
(348,-4,o),
(444,256,o),
(476,438,cs),
(496,551,o),
(440,650,o),
(308,650,cs),
(185,650,o),
(130,557,o),
(88,409,cs),
(77,369,o),
(68,322,o),
(64,278,cs),
(52,143,o),
(94,-4,o),
(197,-4,cs)
);
},
{
closed = 1;
nodes = (
(133,46,o),
(106,175,o),
(113,268,cs),
(116,310,o),
(125,355,o),
(134,388,cs),
(172,523,o),
(214,600,o),
(303,600,cs),
(438,600,o),
(435,495,o),
(424,432,cs),
(396,272,o),
(304,46,o),
(196,46,cs)
);
}
);
width = 461;
},
{
layerId = m002;
shapes = (
{
closed = 1;
nodes = (
(274,198,o),
(236,205,o),
(213,184,c),
(194,170,o),
(190,149,o),
(210,118,cs),
(307,-20,l),
(324,-48,o),
(359,-57,o),
(381,-41,cs),
(406,-26,o),
(409,4,o),
(391,28,cs),
(291,173,ls)
);
},
{
closed = 1;
nodes = (
(394,-4,o),
(486,254,o),
(517,425,cs),
(537,546,o),
(472,649,o),
(334,649,cs),
(202,649,o),
(145,549,o),
(105,408,cs),
(95,370,o),
(85,325,o),
(81,283,cs),
(69,148,o),
(113,-4,o),
(232,-4,cs)
);
},
{
closed = 1;
nodes = (
(194,91,o),
(174,187,o),
(181,270,cs),
(184,308,o),
(191,347,o),
(199,377,cs),
(234,500,o),
(264,555,o),
(330,555,cs),
(427,555,o),
(425,484,o),
(414,428,cs),
(390,282,o),
(311,91,o),
(231,91,cs)
);
}
);
width = 523;
}
);
metricLeft = O;
metricRight = O;
unicode = 81;
},
{
glyphname = R;
lastChange = "2022-03-01 23:01:04 +0000";
layers = (
{
layerId = m01;
shapes = (
{
closed = 1;
nodes = (
(294,324,o),
(455,321,o),
(482,476,cs),
(503,597,o),
(372,650,o),
(153,650,c),
(144,600,l),
(344,600,o),
(446,565,o),
(432,483,cs),
(411,364,o),
(270,375,o),
(116,375,c),
(109,324,l)
);
},
{
closed = 1;
nodes = (
(106,341,l),
(352,19,ls),
(362,6,o),
(369,0,o),
(377,0,cs),
(387,0,o),
(397,7,o),
(400,15,cs),
(403,23,o),
(403,34,o),
(397,42,cs),
(174,334,l)
);
},
{
closed = 1;
nodes = (
(177,637,o),
(175,650,o),
(154,650,cs),
(132,650,o),
(127,639,o),
(124,623,cs),
(20,33,ls),
(17,16,o),
(24,0,o),
(42,0,cs),
(64,0,o),
(68,16,o),
(71,31,cs),
(174,619,ls)
);
}
);
width = 460;
},
{
layerId = m002;
shapes = (
{
closed = 1;
nodes = (
(301,301,o),
(493,287,o),
(524,460,cs),
(548,597,o),
(397,653,o),
(170,649,c),
(152,555,l),
(356,558,o),
(435,535,o),
(424,475,cs),
(407,381,o),
(292,396,o),
(135,395,c),
(121,300,l)
);
},
{
closed = 1;
nodes = (
(94,368,l),
(355,27,ls),
(369,9,o),
(384,0,o),
(400,0,cs),
(420,0,o),
(440,12,o),
(447,31,cs),
(452,46,o),
(451,62,o),
(440,77,cs),
(227,356,l)
);
},
{
closed = 1;
nodes = (
(246,635,o),
(220,649,o),
(194,649,cs),
(161,649,o),
(145,633,o),
(139,604,cs),
(43,59,ls),
(37,26,o),
(57,0,o),
(90,0,cs),
(123,0,o),
(138,21,o),
(143,48,cs),
(239,593,ls)
);
}
);
width = 524;
}
);
metricLeft = N;
metricRight = O;
unicode = 82;
},
{
glyphname = S;
lastChange = "2022-03-01 23:01:04 +0000";
layers = (
{
layerId = m01;
shapes = (
{
closed = 1;
nodes = (
(116,50,o),
(85,66,o),
(78,103,cs),
(75,116,o),
(56,119,o),
(44,116,cs),
(29,112,o),
(29,98,o),
(31,88,cs),
(41,30,o),
(95,0,o),
(161,0,cs),
(305,0,o),
(405,50,o),
(427,172,cs),
(442,258,o),
(363,318,o),
(292,368,cs),
(218,419,o),
(145,452,o),
(153,497,cs),
(163,555,o),
(261,600,o),
(337,600,cs),
(426,600,o),
(442,584,o),
(448,547,cs),
(450,534,o),
(470,531,o),
(482,534,cs),
(497,538,o),
(497,552,o),
(495,562,cs),
(483,626,o),
(443,650,o),
(338,650,cs),
(210,650,o),
(116,576,o),
(104,505,cs),
(90,422,o),
(180,385,o),
(251,334,cs),
(330,278,o),
(387,236,o),
(377,177,cs),
(362,88,o),
(280,50,o),
(161,50,cs)
);
}
);
width = 461;
},
{
layerId = m002;
shapes = (
{
closed = 1;
nodes = (
(164,94,o),
(152,100,o),
(148,123,cs),
(143,153,o),
(103,160,o),
(82,154,cs),
(55,147,o),
(47,125,o),
(51,101,cs),
(63,35,o),
(126,0,o),
(198,0,cs),
(341,0,o),
(448,52,o),
(471,179,cs),
(487,274,o),
(403,336,o),
(335,384,cs),
(265,432,o),
(213,456,o),
(218,480,cs),
(225,521,o),
(298,555,o),
(361,555,cs),
(431,555,o),
(433,553,o),
(437,526,cs),
(442,496,o),
(481,489,o),
(502,495,cs),
(530,503,o),
(539,525,o),
(533,549,cs),
(520,620,o),
(470,649,o),
(362,649,cs),
(231,649,o),
(132,572,o),
(118,495,cs),
(104,400,o),
(202,359,o),
(265,313,cs),
(338,262,o),
(378,232,o),
(371,192,cs),
(359,121,o),
(301,94,o),
(198,94,cs)
);
}
);
width = 522;
}
);
metricLeft = O;
metricRight = O;
unicode = 83;
},
{
glyphname = T;
lastChange = "2022-03-01 23:01:04 +0000";
layers = (
{
layerId = m01;
shapes = (
{
closed = 1;
nodes = (
(289,610,l),
(187,30,ls),
(184,15,o),
(192,0,o),
(210,0,cs),
(232,0,o),
(235,15,o),
(237,25,cs),
(340,610,l)
);
},
{
closed = 1;
nodes = (
(505,600,o),
(511,613,o),
(511,625,cs),
(511,637,o),
(505,650,o),
(485,650,cs),
(151,650,ls),
(131,650,o),
(125,637,o),
(125,625,cs),
(125,613,o),
(131,600,o),
(151,600,cs),
(485,600,ls)
);
}
);
width = 477;
},
{
layerId = m002;
shapes = (
{
closed = 1;
nodes = (
(291,612,l),
(194,57,l),
(187,27,o),
(207,0,o),
(241,0,cs),
(275,0,o),
(288,21,o),
(293,43,cs),
(393,612,l)
);
},
{
closed = 1;
nodes = (
(528,555,o),
(547,577,o),
(547,602,cs),
(547,627,o),
(528,649,o),
(496,649,cs),
(187,649,ls),
(156,649,o),
(136,629,o),
(136,602,cs),
(136,575,o),
(156,555,o),
(187,555,cs),
(496,555,ls)
);
}
);
width = 531;
}
);
metricLeft = N;
metricRight = N;
unicode = 84;
},
{
glyphname = U;
lastChange = "2022-03-01 23:01:04 +0000";
layers = (
{
layerId = m01;
shapes = (
{
closed = 1;
nodes = (
(444,459,l),
(436,459,l),
(433,448,l),
(411,354,o),
(369,289,o),
(349,259,cs),
(283,160,o),
(196,46,o),
(146,46,cs),
(99,46,o),
(84,116,o),
(96,180,cs),
(176,622,ls),
(179,636,o),
(170,649,o),
(155,650,cs),
(139,650,o),
(128,636,o),
(125,620,cs),
(46,183,ls),
(22,52,o),
(79,-4,o),
(138,-4,cs),
(223,-4,o),
(307,109,o),
(375,208,c),
(417,287,l)
);
},
{
closed = 1;
nodes = (
(514,639,o),
(507,650,o),
(487,650,cs),
(469,650,o),
(462,638,o),
(460,626,cs),
(355,27,ls),
(352,8,o),
(364,-1,o),
(378,-1,cs),
(390,-1,o),
(402,7,o),
(405,22,cs),
(511,624,ls)
);
}
);
width = 477;
},
{
layerId = m002;
shapes = (
{
closed = 1;
nodes = (
(491,473,l),
(431,473,l),
(423,444,ls),
(403,360,o),
(367,303,o),
(350,277,cs),
(288,185,o),
(216,91,o),
(184,91,cs),
(163,91,o),
(154,131,o),
(165,187,cs),
(239,595,ls),
(243,623,o),
(223,647,o),
(193,649,cs),
(167,650,o),
(142,630,o),
(138,602,cs),
(64,197,ls),
(41,60,o),
(105,-4,o),
(177,-4,cs),
(273,-4,o),
(357,114,o),
(420,205,c),
(461,282,l)
);
},
{
closed = 1;
nodes = (
(553,627,o),
(534,649,o),
(499,649,cs),
(473,649,o),
(452,632,o),
(447,607,cs),
(350,53,ls),
(345,19,o),
(370,-1,o),
(399,-1,cs),
(422,-1,o),
(445,13,o),
(450,39,cs),
(549,597,ls)
);
}
);
width = 534;
}
);
metricLeft = N;
metricRight = N;
unicode = 85;
},
{
glyphname = V;
lastChange = "2022-03-01 23:01:04 +0000";
layers = (
{
layerId = m01;
shapes = (
{
closed = 1;
nodes = (
(204,0,o),
(208,11,o),
(215,25,cs),
(508,618,ls),
(518,638,o),
(506,650,o),
(491,650,cs),
(472,650,o),
(463,642,o),
(455,625,cs),
(184,74,l),
(185,0,l)
);
},
{
closed = 1;
nodes = (
(175,626,ls),
(174,636,o),
(170,650,o),
(148,650,c),
(130,650,o),
(124,639,o),
(125,624,cs),
(158,28,ls),
(159,15,o),
(167,0,o),
(186,0,c),
(205,74,l)
);
}
);
width = 477;
},
{
layerId = m002;
shapes = (
{
closed = 1;
nodes = (
(244,-7,o),
(257,10,o),
(271,36,cs),
(542,585,ls),
(560,622,o),
(534,649,o),
(502,649,cs),
(475,649,o),
(455,638,o),
(444,611,c),
(191,97,l),
(192,3,l)
);
},
{
closed = 1;
nodes = (
(237,605,ls),
(235,628,o),
(218,649,o),
(185,649,cs),
(154,649,o),
(135,629,o),
(137,599,cs),
(167,48,ls),
(170,15,o),
(200,-10,o),
(243,4,c),
(264,91,l)
);
}
);
width = 531;
}
);
metricLeft = N;
metricRight = N;
unicode = 86;
},
{
glyphname = W;
lastChange = "2022-03-01 23:01:04 +0000";
layers = (
{
layerId = m01;
shapes = (
{
closed = 1;
nodes = (
(175,626,ls),
(174,636,o),
(170,650,o),
(148,650,c),
(130,650,o),
(124,639,o),
(125,624,cs),
(158,28,ls),
(159,15,o),
(167,0,o),
(186,0,c),
(205,83,l)
);
},
{
closed = 1;
nodes = (
(390,0,o),
(394,11,o),
(401,25,cs),
(694,618,ls),
(704,638,o),
(692,650,o),
(677,650,cs),
(658,650,o),
(650,642,o),
(642,625,cs),
(374,84,l),
(371,0,l)
);
},
{
closed = 1;
nodes = (
(350,366,l),
(335,366,o),
(324,359,o),
(319,349,cs),
(187,81,l),
(185,0,l),
(204,0,o),
(208,11,o),
(215,25,cs),
(346,290,l)
);
},
{
closed = 1;
nodes = (
(375,360,o),
(365,366,o),
(348,366,c),
(329,289,l),
(344,28,ls),
(345,15,o),
(353,0,o),
(372,0,c),
(391,85,l),
(376,350,ls)
);
}
);
width = 663;
},
{
layerId = m002;
shapes = (
{
closed = 1;
nodes = (
(237,605,ls),
(235,628,o),
(218,649,o),
(185,649,cs),
(156,649,o),
(136,632,o),
(136,600,c),
(167,48,ls),
(170,15,o),
(200,-10,o),
(243,4,c),
(264,99,l)
);
},
{
closed = 1;
nodes = (
(415,-8,o),
(429,10,o),
(443,36,cs),
(714,585,ls),
(732,622,o),
(706,649,o),
(674,649,cs),
(648,649,o),
(628,638,o),
(617,611,c),
(367,107,l),
(363,3,l)
);
},
{
closed = 1;
nodes = (
(400,381,l),
(368,396,o),
(332,382,o),
(319,357,cs),
(194,104,l),
(191,3,l),
(243,-8,o),
(257,10,o),
(271,36,cs),
(395,286,l)
);
},
{
closed = 1;
nodes = (
(421,378,o),
(386,394,o),
(348,384,c),
(325,293,l),
(339,48,ls),
(342,15,o),
(372,-10,o),
(415,4,c),
(437,101,l),
(423,349,ls)
);
}
);
width = 703;
}
);
metricLeft = N;
metricRight = N;
unicode = 87;
},
{
glyphname = X;
lastChange = "2022-03-01 23:01:04 +0000";
layers = (
{
layerId = m01;
shapes = (
{
closed = 1;
nodes = (
(515,624,o),
(513,638,o),
(504,645,cs),
(494,653,o),
(474,652,o),
(463,637,cs),
(24,38,ls),
(15,26,o),
(17,13,o),
(26,6,cs),
(37,-3,o),
(56,-3,o),
(67,12,cs),
(504,609,ls)
);
},
{
closed = 1;
nodes = (
(170,650,o),
(151,654,o),
(139,649,cs),
(127,645,o),
(123,632,o),
(130,614,cs),
(354,21,ls),
(361,2,o),
(379,-3,o),
(392,3,cs),
(402,8,o),
(408,20,o),
(402,35,cs),
(177,631,ls)
);
}
);
width = 477;
},
{
layerId = m002;
shapes = (
{
closed = 1;
nodes = (
(554,598,o),
(551,622,o),
(532,639,cs),
(513,655,o),
(472,653,o),
(454,627,cs),
(48,73,ls),
(34,54,o),
(33,30,o),
(53,13,cs),
(73,-6,o),
(114,-5,o),
(132,21,cs),
(536,573,ls)
);
},
{
closed = 1;
nodes = (
(225,647,o),
(190,656,o),
(165,646,cs),
(144,639,o),
(131,618,o),
(143,584,cs),
(350,34,ls),
(362,5,o),
(397,-8,o),
(423,6,cs),
(444,16,o),
(455,38,o),
(445,64,cs),
(237,617,ls)
);
}
);
width = 532;
}
);
metricLeft = N;
metricRight = N;
unicode = 88;
},
{
glyphname = Y;
lastChange = "2022-03-01 23:01:04 +0000";
layers = (
{
layerId = m01;
shapes = (
{
closed = 1;
nodes = (
(504,609,ls),
(509,616,o),
(512,623,o),
(512,629,cs),
(512,635,o),
(509,641,o),
(503,645,cs),
(496,650,o),
(489,651,o),
(483,650,cs),
(476,648,o),
(468,644,o),
(463,638,cs),
(264,368,l),
(261,308,l),
(282,308,l)
);
},
{
closed = 1;
nodes = (
(247,350,l),
(190,27,ls),
(187,12,o),
(195,0,o),
(213,0,cs),
(235,0,o),
(238,12,o),
(240,22,cs),
(298,350,l)
);
},
{
closed = 1;
nodes = (
(267,307,l),
(282,345,l),
(177,631,ls),
(174,639,o),
(167,646,o),
(160,648,cs),
(154,650,o),
(148,651,o),
(140,648,cs),
(132,645,o),
(127,640,o),
(126,634,cs),
(125,628,o),
(127,621,o),
(130,613,cs),
(246,307,l)
);
}
);
width = 477;
},
{
layerId = m002;
shapes = (
{
closed = 1;
nodes = (
(536,573,ls),
(544,584,o),
(548,595,o),
(548,606,cs),
(548,620,o),
(541,632,o),
(528,641,cs),
(516,649,o),
(499,651,o),
(488,648,cs),
(475,645,o),
(460,638,o),
(453,627,cs),
(265,372,l),
(261,285,l),
(324,285,l)
);
},
{
closed = 1;
nodes = (
(253,372,l),
(197,54,ls),
(191,24,o),
(212,0,o),
(245,0,cs),
(272,0,o),
(291,13,o),
(297,40,cs),
(356,372,l)
);
},
{
closed = 1;
nodes = (
(314,284,l),
(337,343,l),
(237,616,ls),
(232,628,o),
(220,641,o),
(206,645,cs),
(195,649,o),
(180,650,o),
(167,645,cs),
(150,639,o),
(138,626,o),
(137,611,cs),
(137,603,o),
(139,593,o),
(142,584,cs),
(256,284,l)
);
}
);
width = 532;
}
);
metricLeft = N;
metricRight = N;
unicode = 89;
},
{
glyphname = Z;
lastChange = "2022-03-01 23:01:04 +0000";
layers = (
{
layerId = m01;
shapes = (
{
closed = 1;
nodes = (
(573,619,o),
(573,630,o),
(569,638,cs),
(564,645,o),
(553,650,o),
(542,650,cs),
(535,650,o),
(527,644,o),
(522,638,c),
(24,39,ls),
(18,32,o),
(16,22,o),
(21,13,cs),
(25,6,o),
(35,0,o),
(52,0,cs),
(58,0,o),
(65,7,o),
(69,11,cs),
(564,608,ls)
);
},
{
closed = 1;
nodes = (
(438,0,ls),
(458,0,o),
(464,13,o),
(464,25,cs),
(464,37,o),
(458,50,o),
(438,50,cs),
(92,50,l),
(45,0,l)
);
},
{
closed = 1;
nodes = (
(546,650,l),
(152,650,ls),
(132,650,o),
(126,637,o),
(126,625,cs),
(126,613,o),
(132,600,o),
(152,600,cs),
(501,600,l)
);
}
);
width = 537;
},
{
layerId = m002;
shapes = (
{
closed = 1;
nodes = (
(606,592,o),
(607,610,o),
(597,626,cs),
(589,640,o),
(569,649,o),
(549,649,cs),
(535,649,o),
(519,640,o),
(510,629,cs),
(49,75,ls),
(37,61,o),
(34,43,o),
(43,26,cs),
(50,12,o),
(71,0,o),
(96,0,cs),
(112,0,o),
(128,11,o),
(134,20,c),
(592,572,l)
);
},
{
closed = 1;
nodes = (
(453,0,ls),
(484,0,o),
(504,20,o),
(504,47,cs),
(504,74,o),
(484,94,o),
(453,94,cs),
(120,94,l),
(33,0,l)
);
},
{
closed = 1;
nodes = (
(609,649,l),
(189,649,ls),
(158,649,o),
(138,629,o),
(138,602,cs),
(138,575,o),
(158,555,o),
(189,555,cs),
(525,555,l)
);
}
);
width = 588;
}
);
metricLeft = N;
metricRight = N;
unicode = 90;
},
{
glyphname = a;
lastChange = "2022-03-01 23:09:32 +0000";
layers = (
{
layerId = m01;
shapes = (
{
closed = 1;
nodes = (
(255,196,l),
(247,182,o),
(238,168,o),
(228,153,cs),
(177,77,o),
(135,44,o),
(110,44,cs),
(87,44,o),
(81,80,o),
(81,104,cs),
(81,142,o),
(93,205,o),
(125,245,cs),
(158,287,o),
(206,300,o),
(240,300,cs),
(270,300,l),
(279,350,l),
(240,350,ls),
(183,350,o),
(127,330,o),
(86,276,cs),
(51,230,o),
(31,157,o),
(31,99,cs),
(31,40,o),
(63,-4,o),
(102,-4,cs),
(155,-4,o),
(200,34,o),
(246,92,c)
);
},
{
closed = 1;
nodes = (
(235,146,ls),
(223,78,o),
(226,0,o),
(296,0,cs),
(329,0,o),
(342,17,o),
(363,50,cs),
(382,79,o),
(385,86,o),
(385,94,cs),
(385,109,o),
(373,116,o),
(362,116,cs),
(350,116,o),
(342,108,o),
(339,104,cs),
(324,81,ls),
(310,59,o),
(302,50,o),
(295,50,cs),
(281,50,o),
(275,78,o),
(284,132,cs),
(316,316,ls),
(319,335,o),
(310,350,o),
(294,350,cs),
(271,350,l),
(255,261,l)
);
}
);
width = 410;
},
{
layerId = m002;
shapes = (
{
closed = 1;
nodes = (
(314,322,l),
(245,194,o),
(238,183,o),
(230,171,cs),
(187,107,o),
(161,87,o),
(149,87,cs),
(162,87,o),
(151,92,o),
(151,115,cs),
(151,146,o),
(160,194,o),
(183,223,cs),
(208,255,o),
(237,263,o),
(263,263,cs),
(312,263,l),
(329,354,l),
(263,354,ls),
(206,354,o),
(147,334,o),
(107,281,cs),
(71,234,o),
(53,165,o),
(53,111,cs),
(53,41,o),
(95,-4,o),
(142,-4,cs),
(203,-4,o),
(252,41,o),
(294,97,c)
);
},
{
closed = 1;
nodes = (
(231,156,ls),
(217,72,o),
(233,0,o),
(312,0,cs),
(351,0,o),
(370,18,o),
(393,56,cs),
(413,85,o),
(417,94,o),
(417,106,cs),
(417,133,o),
(393,150,o),
(369,150,cs),
(350,150,o),
(335,139,o),
(326,128,c),
(313,108,ls),
(303,92,o),
(303,92,o),
(311,92,cs),
(320,92,o),
(320,92,o),
(328,136,cs),
(356,297,ls),
(362,329,o),
(340,354,o),
(310,354,cs),
(267,354,l),
(249,256,l)
);
}
);
width = 455;
}
);
metricLeft = o;
metricRight = n;
unicode = 97;
},
{
glyphname = b;
lastChange = "2022-03-01 23:09:42 +0000";
layers = (
{
layerId = m01;
shapes = (
{
closed = 1;
nodes = (
(80,89,l),
(174,621,ls),
(177,640,o),
(167,650,o),
(155,650,cs),
(142,650,o),
(128,641,o),
(124,621,cs),
(18,22,ls),
(16,10,o),
(22,0,o),
(34,0,c),
(67,0,l)
);
},
{
closed = 1;
nodes = (
(70,89,l),
(80,89,l),
(92,136,o),
(103,174,o),
(128,211,cs),
(177,285,o),
(208,304,o),
(234,304,cs),
(257,304,o),
(256,270,o),
(256,246,cs),
(256,210,o),
(243,145,o),
(212,105,cs),
(179,63,o),
(144,50,o),
(110,50,cs),
(103,50,o),
(82,50,o),
(63,50,c),
(54,0,l),
(66,0,o),
(90,0,o),
(110,0,cs),
(165,0,o),
(215,24,o),
(251,74,cs),
(289,126,o),
(306,191,o),
(306,251,cs),
(306,310,o),
(286,354,o),
(245,354,cs),
(185,354,o),
(147,320,o),
(99,257,c)
);
}
);
width = 340;
},
{
layerId = m002;
shapes = (
{
closed = 1;
nodes = (
(145,98,l),
(228,564,l),
(232,597,o),
(210,617,o),
(184,617,cs),
(161,617,o),
(135,601,o),
(130,571,cs),
(37,47,ls),
(32,22,o),
(52,0,o),
(78,0,cs),
(131,0,l)
);
},
{
closed = 1;
nodes = (
(79,78,l),
(139,78,l),
(153,129,o),
(161,163,o),
(182,196,cs),
(223,256,o),
(239,266,o),
(253,266,cs),
(235,266,o),
(245,262,o),
(245,239,cs),
(245,210,o),
(235,160,o),
(213,131,cs),
(188,99,o),
(169,92,o),
(145,92,cs),
(134,92,o),
(99,92,o),
(80,92,c),
(65,0,l),
(106,0,o),
(127,0,o),
(145,0,cs),
(202,0,o),
(254,25,o),
(290,75,cs),
(327,125,o),
(343,187,o),
(343,244,cs),
(343,312,o),
(314,358,o),
(263,358,cs),
(195,358,o),
(154,318,o),
(109,258,c)
);
}
);
width = 381;
}
);
metricLeft = n;
unicode = 98;
},
{
glyphname = c;
lastChange = "2022-03-01 23:10:29 +0000";
layers = (
{
layerId = m01;
shapes = (
{
closed = 1;
nodes = (
(246,105,o),
(239,117,o),
(230,123,cs),
(222,129,o),
(206,134,o),
(192,114,cs),
(165,75,o),
(134,46,o),
(108,46,cs),
(81,46,o),
(81,77,o),
(81,105,cs),
(81,152,o),
(100,203,o),
(124,251,cs),
(145,287,o),
(167,301,o),
(197,301,cs),
(227,301,o),
(254,296,o),
(259,274,cs),
(263,255,o),
(278,253,o),
(289,256,cs),
(300,259,o),
(308,267,o),
(306,286,cs),
(300,328,o),
(259,351,o),
(200,351,cs),
(141,351,o),
(102,314,o),
(78,271,cs),
(60,237,o),
(31,170,o),
(31,95,cs),
(31,20,o),
(56,-4,o),
(96,-4,cs),
(148,-4,o),
(196,33,o),
(232,85,cs)
);
}
);
width = 330;
},
{
layerId = m002;
shapes = (
{
closed = 1;
nodes = (
(298,115,o),
(289,136,o),
(269,151,cs),
(249,165,o),
(217,164,o),
(198,138,cs),
(175,105,o),
(158,88,o),
(147,88,cs),
(150,88,o),
(150,88,o),
(150,116,cs),
(150,153,o),
(165,194,o),
(185,234,c),
(200,259,o),
(207,263,o),
(225,263,cs),
(247,263,o),
(251,263,o),
(253,259,c),
(259,226,o),
(292,219,o),
(313,225,cs),
(335,232,o),
(350,248,o),
(347,277,cs),
(340,328,o),
(289,355,o),
(227,355,cs),
(161,355,o),
(118,312,o),
(95,271,cs),
(80,239,o),
(52,177,o),
(52,107,cs),
(52,29,o),
(85,-4,o),
(136,-4,cs),
(194,-4,o),
(244,36,o),
(277,85,cs)
);
}
);
width = 377;
}
);
metricLeft = o;
metricRight = b;
unicode = 99;
},
{
glyphname = d;
lastChange = "2022-03-01 23:09:42 +0000";
layers = (
{
layerId = m01;
shapes = (
{
closed = 1;
nodes = (
(199,-4,o),
(284,142,o),
(305,260,cs),
(315,319,o),
(270,351,o),
(200,351,cs),
(141,351,o),
(102,314,o),
(78,271,cs),
(60,237,o),
(31,170,o),
(31,95,cs),
(31,20,o),
(56,-4,o),
(96,-4,cs)
);
},
{
closed = 1;
nodes = (
(81,46,o),
(81,77,o),
(81,105,cs),
(81,152,o),
(100,203,o),
(124,251,cs),
(145,287,o),
(167,301,o),
(197,301,cs),
(237,301,o),
(262,287,o),
(255,247,cs),
(244,187,o),
(165,46,o),
(108,46,cs)
);
},
{
closed = 1;
nodes = (
(309,59,o),
(301,48,o),
(294,48,cs),
(274,48,o),
(282,124,o),
(283,132,cs),
(370,623,ls),
(373,642,o),
(363,650,o),
(350,650,cs),
(337,650,o),
(322,640,o),
(319,623,c),
(234,146,l),
(222,78,o),
(225,0,o),
(295,0,cs),
(328,0,o),
(341,17,o),
(362,50,cs),
(381,79,o),
(384,86,o),
(384,94,cs),
(384,109,o),
(372,116,o),
(361,116,cs),
(349,116,o),
(341,108,o),
(338,104,cs),
(323,81,ls)
);
}
);
width = 409;
},
{
layerId = m002;
shapes = (
{
closed = 1;
nodes = (
(246,-4,o),
(327,138,o),
(346,248,cs),
(358,316,o),
(303,355,o),
(228,355,cs),
(162,355,o),
(120,313,o),
(97,272,cs),
(80,240,o),
(53,178,o),
(53,107,cs),
(53,29,o),
(86,-4,o),
(137,-4,cs)
);
},
{
closed = 1;
nodes = (
(150,88,o),
(150,88,o),
(150,116,cs),
(150,153,o),
(165,194,o),
(185,234,c),
(200,259,o),
(208,263,o),
(225,263,cs),
(252,263,o),
(253,263,o),
(249,244,cs),
(240,195,o),
(180,88,o),
(147,88,cs)
);
},
{
closed = 1;
nodes = (
(300,88,o),
(316,90,o),
(310,90,cs),
(322,90,o),
(326,130,o),
(327,136,cs),
(403,565,ls),
(408,598,o),
(386,617,o),
(359,617,cs),
(335,617,o),
(309,600,o),
(305,572,cs),
(230,156,ls),
(216,72,o),
(232,0,o),
(311,0,cs),
(350,0,o),
(369,18,o),
(392,56,cs),
(412,85,o),
(416,94,o),
(416,106,cs),
(416,133,o),
(392,150,o),
(368,150,cs),
(349,150,o),
(334,139,o),
(325,128,c),
(312,108,ls)
);
}
);
width = 454;
}
);
metricLeft = o;
metricRight = n;
unicode = 100;
},
{
glyphname = e;
lastChange = "2022-03-01 23:09:42 +0000";
layers = (
{
layerId = m01;
shapes = (
{
closed = 1;
nodes = (
(79,149,o),
(132,164,o),
(172,178,cs),
(219,194,o),
(276,226,o),
(287,287,cs),
(294,328,o),
(252,350,o),
(201,350,cs),
(144,350,o),
(108,323,o),
(78,273,cs),
(50,226,o),
(34,160,o),
(30,104,cs),
(24,19,o),
(58,-4,o),
(101,-4,cs),
(156,-4,o),
(193,37,o),
(223,74,cs),
(236,89,o),
(230,106,o),
(220,113,cs),
(209,121,o),
(195,119,o),
(186,107,cs),
(160,71,o),
(137,45,o),
(102,45,cs),
(89,45,o),
(79,64,o),
(80,98,cs),
(81,153,o),
(101,217,o),
(128,258,cs),
(155,299,o),
(174,302,o),
(207,302,cs),
(225,302,o),
(238,292,o),
(236,284,cs),
(232,263,o),
(200,242,o),
(144,220,cs),
(118,210,o),
(91,201,o),
(69,201,c),
(60,149,l)
);
}
);
width = 309;
},
{
layerId = m002;
shapes = (
{
closed = 1;
nodes = (
(126,130,o),
(177,145,o),
(212,157,cs),
(257,173,o),
(319,206,o),
(330,271,cs),
(340,323,o),
(290,354,o),
(228,354,cs),
(165,354,o),
(126,323,o),
(98,275,cs),
(70,230,o),
(55,168,o),
(52,117,cs),
(44,18,o),
(98,-4,o),
(141,-4,cs),
(204,-4,o),
(243,43,o),
(269,76,cs),
(290,100,o),
(282,128,o),
(260,143,cs),
(240,157,o),
(208,152,o),
(193,131,cs),
(170,100,o),
(159,87,o),
(142,87,cs),
(148,87,o),
(148,87,o),
(149,109,cs),
(150,154,o),
(166,205,o),
(187,237,cs),
(204,264,o),
(207,264,o),
(233,264,cs),
(252,264,o),
(228,259,o),
(233,278,c),
(231,268,o),
(214,257,o),
(168,239,cs),
(131,224,o),
(105,217,o),
(91,232,c),
(74,130,l)
);
}
);
width = 358;
}
);
metricLeft = o;
metricRight = b;
unicode = 101;
},
{
glyphname = f;
lastChange = "2022-03-01 23:09:03 +0000";
layers = (
{
layerId = m01;
shapes = (
{
closed = 1;
nodes = (
(312,305,o),
(318,316,o),
(318,328,cs),
(318,340,o),
(312,350,o),
(292,350,cs),
(98,350,ls),
(78,350,o),
(72,340,o),
(72,328,cs),
(72,316,o),
(78,305,o),
(98,305,cs),
(292,305,ls)
);
},
{
closed = 1;
nodes = (
(93,-95,ls),
(85,-143,o),
(73,-195,o),
(41,-224,cs),
(22,-243,o),
(-8,-250,o),
(-42,-250,cs),
(-57,-250,o),
(-71,-246,o),
(-84,-237,cs),
(-96,-229,o),
(-110,-228,o),
(-120,-238,cs),
(-130,-248,o),
(-132,-263,o),
(-120,-272,cs),
(-99,-288,o),
(-74,-300,o),
(-42,-300,cs),
(9,-300,o),
(46,-287,o),
(73,-263,cs),
(112,-228,o),
(133,-169,o),
(144,-95,cs),
(252,518,ls),
(259,558,o),
(288,600,o),
(321,600,cs),
(335,600,o),
(349,598,o),
(360,594,cs),
(374,588,o),
(390,594,o),
(395,607,cs),
(400,620,o),
(395,633,o),
(381,639,cs),
(363,647,o),
(343,650,o),
(321,650,cs),
(271,650,o),
(219,616,o),
(203,527,cs)
);
}
);
width = 336;
},
{
layerId = m002;
shapes = (
{
closed = 1;
nodes = (
(323,267,o),
(341,287,o),
(341,311,cs),
(341,336,o),
(323,354,o),
(292,354,cs),
(122,354,ls),
(90,354,o),
(72,336,o),
(72,311,cs),
(72,287,o),
(90,267,o),
(122,267,cs),
(292,267,ls)
);
},
{
closed = 1;
nodes = (
(90,-55,ls),
(83,-98,o),
(75,-137,o),
(53,-155,c),
(40,-168,o),
(25,-171,o),
(-1,-171,cs),
(-9,-171,o),
(-13,-170,o),
(-23,-163,cs),
(-42,-150,o),
(-72,-151,o),
(-89,-168,cs),
(-109,-189,o),
(-109,-216,o),
(-85,-233,cs),
(-66,-248,o),
(-37,-263,o),
(-1,-263,cs),
(51,-263,o),
(90,-248,o),
(118,-224,cs),
(159,-188,o),
(178,-131,o),
(189,-63,cs),
(284,473,ls),
(289,504,o),
(303,525,o),
(317,525,cs),
(326,525,o),
(333,524,o),
(341,522,c),
(367,511,o),
(400,524,o),
(408,549,cs),
(415,573,o),
(405,594,o),
(381,604,cs),
(363,613,o),
(339,617,o),
(317,617,cs),
(261,617,o),
(204,579,o),
(187,489,cs)
);
}
);
width = 374;
}
);
unicode = 102;
},
{
glyphname = g;
lastChange = "2022-03-01 23:09:42 +0000";
layers = (
{
layerId = m01;
shapes = (
{
closed = 1;
nodes = (
(242,220,l),
(227,199,o),
(212,178,o),
(195,157,cs),
(133,77,o),
(95,47,o),
(76,47,cs),
(62,47,o),
(62,62,o),
(62,78,cs),
(62,116,o),
(80,206,o),
(106,245,cs),
(136,290,o),
(187,300,o),
(221,300,c),
(256,300,l),
(256,302,o),
(264,347,o),
(264,350,c),
(221,350,l),
(164,350,o),
(105,333,o),
(67,276,cs),
(35,228,o),
(12,131,o),
(12,73,cs),
(12,22,o),
(32,-4,o),
(65,-4,cs),
(127,-4,o),
(175,50,o),
(209,93,cs),
(214,100,o),
(220,107,o),
(225,114,c)
);
},
{
closed = 1;
nodes = (
(-12,-229,o),
(-26,-228,o),
(-36,-238,cs),
(-46,-248,o),
(-48,-263,o),
(-36,-272,cs),
(-15,-288,o),
(10,-300,o),
(42,-300,cs),
(93,-300,o),
(130,-287,o),
(157,-263,cs),
(196,-228,o),
(215,-169,o),
(228,-95,cs),
(302,326,ls),
(305,343,o),
(294,350,o),
(277,350,c),
(252,350,l),
(228,198,l),
(177,-95,ls),
(169,-143,o),
(157,-195,o),
(125,-224,cs),
(106,-243,o),
(76,-250,o),
(42,-250,cs),
(27,-250,o),
(13,-246,o),
(0,-237,cs)
);
}
);
width = 321;
},
{
layerId = m002;
shapes = (
{
closed = 1;
nodes = (
(307,329,l),
(226,211,o),
(214,193,o),
(200,176,cs),
(146,107,o),
(123,89,o),
(117,89,cs),
(131,89,o),
(131,89,o),
(131,92,cs),
(131,124,o),
(146,195,o),
(166,225,cs),
(186,257,o),
(217,263,o),
(243,263,cs),
(301,263,l),
(301,280,o),
(308,328,o),
(308,354,c),
(243,354,ls),
(188,354,o),
(125,336,o),
(87,279,cs),
(55,232,o),
(34,143,o),
(34,88,cs),
(34,21,o),
(69,-4,o),
(107,-4,cs),
(177,-4,o),
(227,56,o),
(256,93,c),
(261,101,o),
(266,104,o),
(273,117,c)
);
},
{
closed = 1;
nodes = (
(47,-150,o),
(17,-150,o),
(0,-167,cs),
(-21,-188,o),
(-22,-215,o),
(3,-233,cs),
(22,-248,o),
(51,-263,o),
(87,-263,cs),
(137,-263,o),
(178,-248,o),
(205,-224,cs),
(247,-188,o),
(264,-130,o),
(277,-63,cs),
(341,305,ls),
(347,335,o),
(323,354,o),
(292,354,cs),
(248,354,l),
(223,201,l),
(178,-55,ls),
(171,-98,o),
(162,-137,o),
(139,-155,c),
(128,-168,o),
(114,-171,o),
(87,-171,cs),
(78,-171,o),
(74,-170,o),
(66,-163,c)
);
}
);
width = 366;
}
);
metricLeft = "=o-15";
unicode = 103;
},
{
glyphname = h;
lastChange = "2022-03-01 23:09:42 +0000";
layers = (
{
layerId = m01;
shapes = (
{
closed = 1;
nodes = (
(78,169,l),
(137,269,o),
(205,304,o),
(236,304,cs),
(260,304,o),
(263,261,o),
(256,222,cs),
(239,131,ls),
(227,66,o),
(235,0,o),
(301,0,cs),
(334,0,o),
(347,17,o),
(368,50,cs),
(387,79,o),
(390,86,o),
(390,94,cs),
(390,109,o),
(378,116,o),
(367,116,cs),
(355,116,o),
(347,108,o),
(344,104,cs),
(329,81,ls),
(315,59,o),
(307,48,o),
(300,48,cs),
(286,48,o),
(279,78,o),
(289,129,cs),
(307,222,ls),
(317,275,o),
(302,353,o),
(244,353,cs),
(187,353,o),
(138,321,o),
(96,278,c)
);
},
{
closed = 1;
nodes = (
(178,641,o),
(167,650,o),
(154,650,cs),
(141,650,o),
(127,641,o),
(124,623,cs),
(18,23,ls),
(15,8,o),
(26,0,o),
(39,0,cs),
(52,0,o),
(66,7,o),
(69,23,cs),
(175,623,ls)
);
}
);
width = 415;
},
{
layerId = m002;
shapes = (
{
closed = 1;
nodes = (
(67,35,l),
(189,243,o),
(235,266,o),
(255,266,cs),
(241,266,o),
(252,255,o),
(246,222,cs),
(231,144,ls),
(217,70,o),
(235,0,o),
(312,0,cs),
(351,0,o),
(371,18,o),
(394,56,cs),
(415,87,o),
(417,95,o),
(417,106,cs),
(417,133,o),
(394,150,o),
(370,150,cs),
(350,150,o),
(332,137,o),
(326,126,cs),
(315,108,ls),
(302,90,o),
(302,90,o),
(311,90,cs),
(320,90,o),
(320,90,o),
(328,132,cs),
(345,213,ls),
(357,277,o),
(333,357,o),
(262,357,cs),
(199,357,o),
(147,320,o),
(107,277,c)
);
},
{
closed = 1;
nodes = (
(234,596,o),
(211,617,o),
(184,617,cs),
(160,617,o),
(136,601,o),
(130,573,cs),
(38,47,ls),
(33,19,o),
(56,0,o),
(83,0,cs),
(106,0,o),
(132,14,o),
(136,40,cs),
(229,565,ls)
);
}
);
width = 455;
}
);
metricLeft = n;
metricRight = n;
unicode = 104;
},
{
glyphname = i;
lastChange = "2022-03-01 23:09:42 +0000";
layers = (
{
layerId = m01;
shapes = (
{
closed = 1;
nodes = (
(43,154,ls),
(29,73,o),
(34,0,o),
(104,0,cs),
(133,0,o),
(150,17,o),
(171,50,cs),
(190,79,o),
(193,86,o),
(193,94,cs),
(193,109,o),
(181,116,o),
(170,116,cs),
(158,116,o),
(150,108,o),
(147,104,cs),
(132,81,ls),
(118,59,o),
(110,50,o),
(103,50,cs),
(89,50,o),
(79,69,o),
(92,140,cs),
(124,320,ls),
(128,340,o),
(116,350,o),
(104,350,cs),
(91,350,o),
(76,341,o),
(73,323,cs)
);
},
{
closed = 1;
nodes = (
(139,441,o),
(152,454,o),
(152,468,cs),
(152,483,o),
(138,494,o),
(124,494,cs),
(108,494,o),
(97,481,o),
(97,468,cs),
(97,454,o),
(109,441,o),
(124,441,cs)
);
}
);
width = 218;
},
{
layerId = m002;
shapes = (
{
closed = 1;
nodes = (
(58,163,ls),
(46,87,o),
(49,0,o),
(139,0,cs),
(173,0,o),
(197,18,o),
(220,56,cs),
(240,85,o),
(244,94,o),
(244,106,cs),
(244,133,o),
(220,150,o),
(196,150,cs),
(177,150,o),
(162,139,o),
(153,128,c),
(140,108,ls),
(130,92,o),
(130,92,o),
(138,92,cs),
(146,92,o),
(146,92,o),
(155,143,cs),
(183,300,ls),
(189,333,o),
(165,354,o),
(139,354,cs),
(115,354,o),
(89,338,o),
(85,310,cs)
);
},
{
closed = 1;
nodes = (
(183,386,o),
(208,407,o),
(208,434,cs),
(208,463,o),
(179,480,o),
(156,480,cs),
(128,480,o),
(106,459,o),
(106,434,cs),
(106,407,o),
(129,386,o),
(156,386,cs)
);
}
);
width = 282;
}
);
metricLeft = n;
metricRight = n;
unicode = 105;
},
{
glyphname = j;
lastChange = "2022-03-01 23:09:42 +0000";
layers = (
{
layerId = m01;
shapes = (
{
closed = 1;
nodes = (
(-1,-95,ls),
(-9,-143,o),
(-21,-195,o),
(-53,-224,cs),
(-72,-243,o),
(-102,-250,o),
(-136,-250,cs),
(-151,-250,o),
(-165,-246,o),
(-178,-237,cs),
(-190,-229,o),
(-204,-228,o),
(-214,-238,cs),
(-224,-248,o),
(-226,-263,o),
(-214,-272,cs),
(-193,-288,o),
(-168,-300,o),
(-136,-300,cs),
(-85,-300,o),
(-48,-287,o),
(-21,-263,cs),
(18,-228,o),
(37,-169,o),
(50,-95,cs),
(125,330,ls),
(127,342,o),
(116,350,o),
(102,350,cs),
(88,350,o),
(76,340,o),
(74,329,cs)
);
},
{
closed = 1;
nodes = (
(138,440,o),
(151,453,o),
(151,468,cs),
(151,484,o),
(138,495,o),
(123,495,cs),
(108,495,o),
(96,484,o),
(96,468,cs),
(96,453,o),
(108,440,o),
(123,440,cs)
);
}
);
width = 145;
},
{
layerId = m002;
shapes = (
{
closed = 1;
nodes = (
(-4,-55,ls),
(-11,-98,o),
(-19,-137,o),
(-41,-155,c),
(-54,-168,o),
(-69,-171,o),
(-95,-171,cs),
(-103,-171,o),
(-107,-170,o),
(-117,-163,cs),
(-136,-150,o),
(-166,-151,o),
(-183,-168,cs),
(-203,-189,o),
(-203,-216,o),
(-179,-233,cs),
(-160,-248,o),
(-131,-263,o),
(-95,-263,cs),
(-43,-263,o),
(-4,-248,o),
(24,-224,cs),
(65,-188,o),
(82,-130,o),
(95,-63,cs),
(160,309,ls),
(165,334,o),
(142,354,o),
(113,354,cs),
(89,354,o),
(67,338,o),
(62,316,cs)
);
},
{
closed = 1;
nodes = (
(159,385,o),
(183,406,o),
(183,434,cs),
(183,462,o),
(159,481,o),
(132,481,cs),
(105,481,o),
(81,462,o),
(81,434,cs),
(81,406,o),
(105,385,o),
(132,385,cs)
);
}
);
width = 185;
}
);
metricRight = g;
unicode = 106;
},
{
glyphname = k;
lastChange = "2022-03-01 23:09:42 +0000";
layers = (
{
layerId = m01;
shapes = (
{
closed = 1;
nodes = (
(179,642,o),
(167,650,o),
(151,650,cs),
(136,650,o),
(127,639,o),
(124,622,cs),
(19,26,ls),
(16,10,o),
(26,0,o),
(39,0,cs),
(55,0,o),
(67,7,o),
(70,26,cs),
(175,621,ls)
);
},
{
closed = 1;
nodes = (
(208,169,l),
(225,180,o),
(291,209,o),
(299,254,cs),
(305,288,o),
(299,354,o),
(242,354,cs),
(199,354,o),
(164,334,o),
(133,311,cs),
(119,300,o),
(105,289,o),
(92,275,c),
(81,191,l),
(85,196,o),
(90,200,o),
(94,205,cs),
(111,223,o),
(147,256,o),
(165,271,cs),
(185,287,o),
(214,305,o),
(234,305,cs),
(248,305,o),
(254,287,o),
(252,274,cs),
(247,248,o),
(223,236,o),
(193,219,cs),
(180,212,o),
(158,200,o),
(136,190,c)
);
},
{
closed = 1;
nodes = (
(260,8,o),
(276,0,o),
(301,0,cs),
(334,0,o),
(347,17,o),
(368,50,cs),
(387,79,o),
(390,86,o),
(390,94,cs),
(390,109,o),
(378,116,o),
(367,116,cs),
(355,116,o),
(347,108,o),
(344,104,cs),
(329,81,ls),
(315,59,o),
(307,50,o),
(302,50,cs),
(296,50,o),
(289,57,o),
(278,74,cs),
(200,190,l),
(136,190,l),
(249,24,ls)
);
}
);
width = 415;
},
{
layerId = m002;
shapes = (
{
closed = 1;
nodes = (
(234,598,o),
(211,617,o),
(181,617,cs),
(158,617,o),
(136,602,o),
(130,572,cs),
(40,52,l),
(33,22,o),
(56,0,o),
(83,0,cs),
(109,0,o),
(132,14,o),
(137,43,cs),
(229,563,ls)
);
},
{
closed = 1;
nodes = (
(236,145,l),
(260,161,o),
(328,191,o),
(338,242,cs),
(345,288,o),
(331,358,o),
(261,358,cs),
(214,358,o),
(176,336,o),
(149,315,cs),
(132,303,o),
(116,289,o),
(103,275,c),
(84,119,l),
(143,178,o),
(148,184,o),
(150,186,cs),
(166,203,o),
(198,232,o),
(211,243,cs),
(229,257,o),
(245,267,o),
(254,267,cs),
(239,267,o),
(244,280,o),
(242,268,cs),
(240,256,o),
(230,251,o),
(203,236,cs),
(192,229,o),
(174,220,o),
(99,185,c)
);
},
{
closed = 1;
nodes = (
(257,12,o),
(281,0,o),
(312,0,cs),
(351,0,o),
(371,18,o),
(394,56,cs),
(415,87,o),
(417,95,o),
(417,106,cs),
(417,133,o),
(394,150,o),
(370,150,cs),
(351,150,o),
(336,139,o),
(327,128,c),
(314,108,ls),
(302,89,o),
(318,92,o),
(313,92,cs),
(321,92,o),
(321,92,o),
(314,102,cs),
(239,214,l),
(120,214,l),
(244,32,ls)
);
}
);
width = 455;
}
);
metricLeft = n;
metricRight = n;
unicode = 107;
},
{
glyphname = l;
lastChange = "2022-03-01 23:09:42 +0000";
layers = (
{
layerId = m01;
shapes = (
{
closed = 1;
nodes = (
(40,146,ls),
(27,74,o),
(30,0,o),
(100,0,cs),
(133,0,o),
(146,17,o),
(167,50,cs),
(186,79,o),
(189,86,o),
(189,94,cs),
(189,109,o),
(177,116,o),
(166,116,cs),
(154,116,o),
(146,108,o),
(143,104,cs),
(128,81,ls),
(114,59,o),
(106,50,o),
(99,50,cs),
(85,50,o),
(79,77,o),
(89,134,cs),
(175,624,ls),
(178,640,o),
(164,650,o),
(150,650,cs),
(139,650,o),
(128,644,o),
(125,629,cs)
);
}
);
width = 214;
},
{
layerId = m002;
shapes = (
{
closed = 1;
nodes = (
(57,156,ls),
(43,72,o),
(58,0,o),
(137,0,cs),
(175,0,o),
(194,17,o),
(219,55,cs),
(238,85,o),
(242,94,o),
(242,106,cs),
(242,133,o),
(218,150,o),
(195,150,cs),
(175,150,o),
(157,138,o),
(151,126,c),
(138,107,ls),
(128,92,o),
(128,92,o),
(136,92,cs),
(146,92,o),
(146,92,o),
(154,137,cs),
(230,566,ls),
(234,596,o),
(209,617,o),
(181,617,cs),
(159,617,o),
(136,604,o),
(132,578,cs)
);
}
);
width = 280;
}
);
metricLeft = n;
metricRight = n;
unicode = 108;
},
{
glyphname = m;
lastChange = "2022-03-01 23:09:42 +0000";
layers = (
{
layerId = m01;
shapes = (
{
closed = 1;
nodes = (
(125,340,o),
(121,350,o),
(104,350,c),
(85,350,o),
(74,342,o),
(71,323,cs),
(18,23,ls),
(17,15,o),
(18,0,o),
(40,0,cs),
(66,0,o),
(68,18,o),
(69,23,cs),
(122,323,ls)
);
},
{
closed = 1;
nodes = (
(82,174,l),
(141,273,o),
(205,304,o),
(231,304,cs),
(262,304,o),
(262,260,o),
(257,233,cs),
(218,22,ls),
(217,14,o),
(218,0,o),
(240,0,c),
(266,0,o),
(268,17,o),
(269,22,cs),
(308,233,ls),
(319,290,o),
(305,353,o),
(238,353,cs),
(184,353,o),
(141,324,o),
(96,277,c)
);
},
{
closed = 1;
nodes = (
(280,170,l),
(339,270,o),
(407,305,o),
(438,305,cs),
(462,305,o),
(465,262,o),
(458,223,cs),
(441,132,ls),
(429,67,o),
(437,0,o),
(503,0,cs),
(536,0,o),
(549,18,o),
(570,51,cs),
(589,80,o),
(592,87,o),
(592,95,cs),
(592,110,o),
(580,117,o),
(569,117,cs),
(557,117,o),
(549,109,o),
(546,105,cs),
(531,82,ls),
(517,60,o),
(509,48,o),
(502,48,cs),
(488,48,o),
(481,79,o),
(491,130,cs),
(509,223,ls),
(519,276,o),
(504,354,o),
(446,354,cs),
(389,354,o),
(340,322,o),
(298,279,c)
);
}
);
width = 617;
},
{
layerId = m002;
shapes = (
{
closed = 1;
nodes = (
(190,339,o),
(165,354,o),
(141,354,cs),
(112,354,o),
(91,339,o),
(85,311,cs),
(38,48,l),
(35,23,o),
(50,0,o),
(85,0,cs),
(115,0,o),
(131,17,o),
(137,40,c),
(183,303,ls)
);
},
{
closed = 1;
nodes = (
(75,49,l),
(193,245,o),
(236,266,o),
(252,266,c),
(252,266,o),
(252,254,o),
(248,233,cs),
(213,47,l),
(210,22,o),
(226,0,o),
(260,0,cs),
(297,0,o),
(308,24,o),
(312,39,c),
(346,224,ls),
(357,286,o),
(337,357,o),
(258,357,cs),
(198,357,o),
(151,323,o),
(108,276,c)
);
},
{
closed = 1;
nodes = (
(246,38,l),
(366,243,o),
(413,267,o),
(433,267,cs),
(417,267,o),
(430,256,o),
(424,224,cs),
(408,144,ls),
(396,72,o),
(412,0,o),
(490,0,cs),
(529,0,o),
(548,20,o),
(571,57,cs),
(591,86,o),
(595,95,o),
(595,107,cs),
(595,136,o),
(568,150,o),
(547,150,cs),
(530,150,o),
(513,141,o),
(504,129,cs),
(491,109,ls),
(478,89,o),
(495,90,o),
(489,90,cs),
(498,90,o),
(498,90,o),
(506,134,cs),
(521,214,ls),
(534,277,o),
(511,358,o),
(440,358,cs),
(377,358,o),
(324,321,o),
(284,278,c)
);
}
);
width = 633;
}
);
metricLeft = n;
metricRight = n;
unicode = 109;
},
{
glyphname = n;
lastChange = "2022-03-01 23:05:45 +0000";
layers = (
{
layerId = m01;
shapes = (
{
closed = 1;
nodes = (
(125,340,o),
(121,350,o),
(104,350,c),
(84,350,o),
(74,341,o),
(71,323,cs),
(18,23,ls),
(17,15,o),
(18,0,o),
(40,0,cs),
(66,0,o),
(68,18,o),
(69,23,cs),
(122,323,ls)
);
},
{
closed = 1;
nodes = (
(78,169,l),
(137,269,o),
(205,304,o),
(236,304,cs),
(260,304,o),
(263,261,o),
(256,222,cs),
(239,131,ls),
(227,66,o),
(235,0,o),
(301,0,cs),
(334,0,o),
(347,17,o),
(368,50,cs),
(387,79,o),
(390,86,o),
(390,94,cs),
(390,109,o),
(378,116,o),
(367,116,cs),
(355,116,o),
(347,108,o),
(344,104,cs),
(329,81,ls),
(315,59,o),
(307,48,o),
(300,48,cs),
(286,48,o),
(279,78,o),
(289,129,cs),
(307,222,ls),
(317,275,o),
(302,353,o),
(244,353,cs),
(187,353,o),
(138,321,o),
(96,278,c)
);
}
);
width = 415;
},
{
layerId = m002;
shapes = (
{
closed = 1;
nodes = (
(188,341,o),
(164,354,o),
(140,354,cs),
(113,354,o),
(90,341,o),
(84,311,cs),
(38,48,ls),
(35,23,o),
(51,0,o),
(84,0,cs),
(123,0,o),
(133,27,o),
(136,40,cs),
(183,304,ls)
);
},
{
closed = 1;
nodes = (
(67,37,l),
(189,242,o),
(235,266,o),
(255,266,cs),
(241,266,o),
(252,255,o),
(246,222,cs),
(231,143,ls),
(219,71,o),
(235,0,o),
(312,0,cs),
(351,0,o),
(371,18,o),
(394,56,cs),
(415,87,o),
(417,95,o),
(417,106,cs),
(417,133,o),
(394,150,o),
(370,150,cs),
(351,150,o),
(336,139,o),
(327,128,c),
(314,108,ls),
(303,90,o),
(303,90,o),
(311,90,cs),
(320,90,o),
(320,90,o),
(328,132,cs),
(345,214,ls),
(355,277,o),
(333,357,o),
(262,357,cs),
(200,357,o),
(147,320,o),
(107,277,c)
);
}
);
width = 455;
}
);
unicode = 110;
},
{
glyphname = o;
lastChange = "2022-03-01 23:06:07 +0000";
layers = (
{
layerId = m01;
shapes = (
{
closed = 1;
nodes = (
(199,-4,o),
(284,142,o),
(305,260,cs),
(315,319,o),
(270,351,o),
(200,351,cs),
(141,351,o),
(102,314,o),
(78,271,cs),
(60,237,o),
(31,170,o),
(31,95,cs),
(31,20,o),
(56,-4,o),
(96,-4,cs)
);
},
{
closed = 1;
nodes = (
(81,46,o),
(81,77,o),
(81,105,cs),
(81,152,o),
(100,203,o),
(124,251,cs),
(145,287,o),
(167,301,o),
(197,301,cs),
(237,301,o),
(262,287,o),
(255,247,cs),
(244,187,o),
(165,46,o),
(108,46,cs)
);
},
{
closed = 1;
nodes = (
(258,279,l),
(313,223,ls),
(321,215,o),
(333,208,o),
(346,210,cs),
(355,212,o),
(364,219,o),
(365,231,cs),
(366,238,o),
(364,245,o),
(355,254,cs),
(287,323,l)
);
}
);
width = 365;
},
{
layerId = m002;
shapes = (
{
closed = 1;
nodes = (
(246,-4,o),
(326,138,o),
(347,248,cs),
(357,316,o),
(303,355,o),
(228,355,cs),
(162,355,o),
(120,313,o),
(97,272,cs),
(80,240,o),
(53,178,o),
(53,107,cs),
(53,29,o),
(86,-4,o),
(137,-4,cs)
);
},
{
closed = 1;
nodes = (
(151,88,o),
(151,88,o),
(151,116,cs),
(151,153,o),
(165,194,o),
(185,233,c),
(201,259,o),
(208,263,o),
(225,263,cs),
(252,263,o),
(253,263,o),
(249,244,cs),
(240,195,o),
(180,88,o),
(147,88,cs)
);
},
{
closed = 1;
nodes = (
(246,265,l),
(308,202,ls),
(322,188,o),
(344,180,o),
(363,185,cs),
(380,190,o),
(397,203,o),
(399,224,cs),
(401,237,o),
(396,249,o),
(382,263,cs),
(300,348,l)
);
}
);
width = 415;
}
);
unicode = 111;
},
{
glyphname = p;
lastChange = "2022-03-01 23:09:42 +0000";
layers = (
{
background = {
shapes = (
{
closed = 1;
nodes = (
(205,-4,o),
(290,142,o),
(311,260,cs),
(321,319,o),
(276,351,o),
(206,351,cs),
(147,351,o),
(108,314,o),
(84,271,cs),
(66,237,o),
(37,170,o),
(37,95,cs),
(37,20,o),
(62,-4,o),
(102,-4,cs)
);
},
{
closed = 1;
nodes = (
(87,46,o),
(87,77,o),
(87,105,cs),
(87,152,o),
(106,203,o),
(130,251,cs),
(151,287,o),
(173,301,o),
(203,301,cs),
(243,301,o),
(268,287,o),
(261,247,cs),
(250,187,o),
(171,46,o),
(114,46,cs)
);
}
);
};
layerId = m01;
shapes = (
{
closed = 1;
nodes = (
(126,342,o),
(114,350,o),
(101,350,cs),
(89,350,o),
(75,342,o),
(72,327,cs),
(-35,-276,ls),
(-38,-292,o),
(-26,-300,o),
(-13,-300,cs),
(-1,-300,o),
(13,-292,o),
(16,-277,cs),
(123,327,ls)
);
},
{
closed = 1;
nodes = (
(79,154,l),
(87,168,o),
(96,182,o),
(106,197,cs),
(157,273,o),
(199,306,o),
(224,306,cs),
(247,306,o),
(253,270,o),
(253,246,cs),
(253,208,o),
(241,145,o),
(209,105,cs),
(176,63,o),
(128,50,o),
(94,50,cs),
(64,50,l),
(55,0,l),
(94,0,ls),
(151,0,o),
(207,20,o),
(248,74,cs),
(283,120,o),
(303,193,o),
(303,251,cs),
(303,310,o),
(271,354,o),
(232,354,cs),
(179,354,o),
(134,316,o),
(88,258,c)
);
}
);
width = 336;
},
{
background = {
shapes = (
{
closed = 1;
nodes = (
(233,-4,o),
(318,142,o),
(339,260,cs),
(349,319,o),
(304,351,o),
(234,351,cs),
(175,351,o),
(136,314,o),
(112,271,cs),
(94,237,o),
(65,170,o),
(65,95,cs),
(65,20,o),
(90,-4,o),
(130,-4,cs)
);
},
{
closed = 1;
nodes = (
(115,46,o),
(115,77,o),
(115,105,cs),
(115,152,o),
(134,203,o),
(158,251,cs),
(179,287,o),
(201,301,o),
(231,301,cs),
(271,301,o),
(296,287,o),
(289,247,cs),
(278,187,o),
(199,46,o),
(142,46,cs)
);
}
);
};
layerId = m002;
shapes = (
{
closed = 1;
nodes = (
(188,335,o),
(165,354,o),
(137,354,cs),
(115,354,o),
(89,339,o),
(85,314,cs),
(-9,-214,ls),
(-13,-244,o),
(10,-263,o),
(38,-263,cs),
(60,-263,o),
(86,-248,o),
(90,-222,cs),
(184,306,ls)
);
},
{
closed = 1;
nodes = (
(81,43,l),
(149,159,o),
(156,171,o),
(164,183,cs),
(207,248,o),
(233,268,o),
(245,268,c),
(233,268,o),
(243,262,o),
(243,239,cs),
(243,208,o),
(234,160,o),
(211,131,cs),
(186,100,o),
(157,92,o),
(131,92,cs),
(82,92,l),
(65,0,l),
(131,0,ls),
(188,0,o),
(247,21,o),
(287,74,cs),
(323,120,o),
(341,189,o),
(341,244,cs),
(341,312,o),
(299,358,o),
(252,358,cs),
(191,358,o),
(143,315,o),
(100,258,c)
);
}
);
width = 378;
}
);
metricLeft = n;
metricRight = b;
unicode = 112;
},
{
glyphname = q;
lastChange = "2022-03-01 23:09:42 +0000";
layers = (
{
background = {
shapes = (
{
closed = 1;
nodes = (
(199,-4,o),
(284,142,o),
(305,260,cs),
(315,319,o),
(270,351,o),
(200,351,cs),
(141,351,o),
(102,314,o),
(78,271,cs),
(60,237,o),
(31,170,o),
(31,95,cs),
(31,20,o),
(56,-4,o),
(96,-4,cs)
);
},
{
closed = 1;
nodes = (
(81,46,o),
(81,77,o),
(81,105,cs),
(81,152,o),
(100,203,o),
(124,251,cs),
(145,287,o),
(167,301,o),
(197,301,cs),
(237,301,o),
(262,287,o),
(255,247,cs),
(244,187,o),
(165,46,o),
(108,46,cs)
);
}
);
};
layerId = m01;
shapes = (
{
closed = 1;
nodes = (
(182,-154,ls),
(169,-226,o),
(172,-300,o),
(242,-300,cs),
(275,-300,o),
(288,-283,o),
(309,-250,cs),
(328,-221,o),
(331,-214,o),
(331,-206,cs),
(331,-191,o),
(319,-184,o),
(308,-184,cs),
(296,-184,o),
(288,-192,o),
(285,-196,cs),
(270,-219,ls),
(256,-241,o),
(248,-250,o),
(241,-250,cs),
(227,-250,o),
(220,-223,o),
(230,-166,cs),
(316,324,ls),
(319,340,o),
(306,350,o),
(292,350,cs),
(281,350,o),
(270,344,o),
(267,329,cs)
);
},
{
closed = 1;
nodes = (
(255,196,l),
(247,182,o),
(238,168,o),
(228,153,cs),
(177,77,o),
(135,44,o),
(110,44,cs),
(87,44,o),
(81,80,o),
(81,104,cs),
(81,142,o),
(93,205,o),
(125,245,cs),
(158,287,o),
(206,300,o),
(240,300,cs),
(270,300,l),
(279,350,l),
(240,350,ls),
(183,350,o),
(127,330,o),
(86,276,cs),
(51,230,o),
(31,157,o),
(31,99,cs),
(31,40,o),
(63,-4,o),
(102,-4,cs),
(155,-4,o),
(200,34,o),
(246,92,c)
);
}
);
width = 444;
},
{
background = {
shapes = (
{
closed = 1;
nodes = (
(224,-4,o),
(309,142,o),
(330,260,cs),
(340,319,o),
(295,351,o),
(225,351,cs),
(166,351,o),
(127,314,o),
(103,271,cs),
(85,237,o),
(56,170,o),
(56,95,cs),
(56,20,o),
(81,-4,o),
(121,-4,cs)
);
},
{
closed = 1;
nodes = (
(106,46,o),
(106,77,o),
(106,105,cs),
(106,152,o),
(125,203,o),
(149,251,cs),
(170,287,o),
(192,301,o),
(222,301,cs),
(262,301,o),
(287,287,o),
(280,247,cs),
(269,187,o),
(190,46,o),
(133,46,cs)
);
}
);
};
layerId = m002;
shapes = (
{
closed = 1;
nodes = (
(185,-107,ls),
(170,-194,o),
(187,-263,o),
(265,-263,cs),
(303,-263,o),
(323,-245,o),
(346,-208,cs),
(366,-176,o),
(369,-167,o),
(369,-156,cs),
(369,-129,o),
(346,-113,o),
(322,-113,cs),
(303,-113,o),
(288,-124,o),
(279,-135,c),
(266,-155,ls),
(256,-171,o),
(256,-171,o),
(264,-171,cs),
(272,-171,o),
(272,-171,o),
(281,-125,cs),
(355,303,l),
(362,333,o),
(337,354,o),
(308,354,cs),
(286,354,o),
(264,340,o),
(259,315,cs)
);
},
{
closed = 1;
nodes = (
(314,322,l),
(245,194,o),
(238,183,o),
(230,171,cs),
(187,107,o),
(161,87,o),
(149,87,cs),
(162,87,o),
(151,92,o),
(151,115,cs),
(151,146,o),
(160,194,o),
(183,223,cs),
(208,255,o),
(237,263,o),
(263,263,cs),
(312,263,l),
(329,354,l),
(263,354,ls),
(206,354,o),
(147,334,o),
(107,281,cs),
(71,234,o),
(53,165,o),
(53,111,cs),
(53,41,o),
(95,-4,o),
(142,-4,cs),
(203,-4,o),
(252,41,o),
(294,97,c)
);
}
);
width = 475;
}
);
metricLeft = o;
metricRight = g;
unicode = 113;
},
{
glyphname = r;
lastChange = "2022-03-01 23:09:42 +0000";
layers = (
{
background = {
shapes = (
{
closed = 1;
nodes = (
(204,-4,o),
(289,142,o),
(310,260,cs),
(320,319,o),
(275,351,o),
(205,351,cs),
(146,351,o),
(107,314,o),
(83,271,cs),
(65,237,o),
(36,170,o),
(36,95,cs),
(36,20,o),
(61,-4,o),
(101,-4,cs)
);
},
{
closed = 1;
nodes = (
(86,46,o),
(86,77,o),
(86,105,cs),
(86,152,o),
(105,203,o),
(129,251,cs),
(150,287,o),
(172,301,o),
(202,301,cs),
(242,301,o),
(267,287,o),
(260,247,cs),
(249,187,o),
(170,46,o),
(113,46,cs)
);
},
{
closed = 1;
nodes = (
(263,279,l),
(318,223,ls),
(326,215,o),
(338,208,o),
(351,210,cs),
(360,212,o),
(369,219,o),
(370,231,cs),
(371,238,o),
(369,245,o),
(360,254,cs),
(292,323,l)
);
}
);
};
layerId = m01;
shapes = (
{
closed = 1;
nodes = (
(121,167,o),
(146,201,o),
(170,234,cs),
(193,266,o),
(216,301,o),
(237,301,cs),
(253,301,o),
(255,286,o),
(267,271,cs),
(282,253,o),
(326,251,o),
(346,265,cs),
(361,276,o),
(373,294,o),
(365,311,cs),
(356,330,o),
(336,319,o),
(329,311,cs),
(322,303,o),
(303,299,o),
(297,311,cs),
(290,324,o),
(278,350,o),
(242,350,cs),
(194,350,o),
(175,321,o),
(136,271,cs),
(121,251,o),
(110,240,o),
(98,222,c),
(76,95,l)
);
},
{
closed = 1;
nodes = (
(124,340,o),
(113,350,o),
(100,350,cs),
(88,350,o),
(74,341,o),
(71,323,cs),
(19,27,ls),
(16,9,o),
(27,0,o),
(40,0,cs),
(53,0,o),
(67,9,o),
(70,27,cs),
(121,320,ls)
);
}
);
width = 356;
},
{
background = {
shapes = (
{
closed = 1;
nodes = (
(231,-4,o),
(316,142,o),
(337,260,cs),
(347,319,o),
(302,351,o),
(232,351,cs),
(173,351,o),
(134,314,o),
(110,271,cs),
(92,237,o),
(63,170,o),
(63,95,cs),
(63,20,o),
(88,-4,o),
(128,-4,cs)
);
},
{
closed = 1;
nodes = (
(113,46,o),
(113,77,o),
(113,105,cs),
(113,152,o),
(132,203,o),
(156,251,cs),
(177,287,o),
(199,301,o),
(229,301,cs),
(269,301,o),
(294,287,o),
(287,247,cs),
(276,187,o),
(197,46,o),
(140,46,cs)
);
},
{
closed = 1;
nodes = (
(290,279,l),
(345,223,ls),
(353,215,o),
(365,208,o),
(378,210,cs),
(387,212,o),
(396,219,o),
(397,231,cs),
(398,238,o),
(396,245,o),
(387,254,cs),
(319,323,l)
);
}
);
};
layerId = m002;
shapes = (
{
closed = 1;
nodes = (
(178,158,o),
(200,187,o),
(220,215,cs),
(241,245,o),
(253,263,o),
(257,263,cs),
(248,263,o),
(248,263,o),
(262,246,cs),
(283,220,o),
(342,217,o),
(369,238,cs),
(394,257,o),
(405,281,o),
(393,306,cs),
(378,339,o),
(335,333,o),
(317,312,cs),
(316,311,o),
(330,313,o),
(333,307,cs),
(323,327,o),
(304,354,o),
(261,354,cs),
(204,354,o),
(179,318,o),
(147,276,cs),
(132,256,o),
(122,246,o),
(109,226,c),
(66,-23,l)
);
},
{
closed = 1;
nodes = (
(187,334,o),
(164,354,o),
(137,354,cs),
(114,354,o),
(90,338,o),
(84,311,cs),
(39,52,ls),
(34,21,o),
(57,0,o),
(84,0,cs),
(108,0,o),
(132,16,o),
(138,44,cs),
(182,300,ls)
);
}
);
width = 404;
}
);
metricLeft = n;
metricRight = n;
unicode = 114;
},
{
glyphname = s;
lastChange = "2022-03-01 23:09:42 +0000";
layers = (
{
layerId = m01;
shapes = (
{
closed = 1;
nodes = (
(113,50,o),
(90,60,o),
(78,66,cs),
(66,72,o),
(43,74,o),
(36,62,cs),
(26,45,o),
(39,29,o),
(67,16,cs),
(93,4,o),
(118,0,o),
(145,0,cs),
(193,0,o),
(243,22,o),
(253,80,cs),
(259,117,o),
(244,145,o),
(226,161,cs),
(208,177,o),
(177,196,o),
(150,215,cs),
(128,230,o),
(104,241,o),
(108,265,cs),
(112,287,o),
(141,300,o),
(173,300,cs),
(205,300,o),
(228,290,o),
(240,284,cs),
(252,278,o),
(275,276,o),
(282,288,cs),
(292,305,o),
(279,321,o),
(251,334,cs),
(225,346,o),
(200,350,o),
(173,350,cs),
(113,350,o),
(66,319,o),
(56,265,cs),
(49,226,o),
(89,194,o),
(118,176,cs),
(145,159,o),
(169,145,o),
(183,134,cs),
(196,123,o),
(206,107,o),
(203,88,cs),
(198,60,o),
(172,52,o),
(145,50,cs)
);
}
);
width = 315;
},
{
layerId = m002;
shapes = (
{
closed = 1;
nodes = (
(158,92,o),
(143,98,o),
(133,104,c),
(108,115,o),
(71,111,o),
(60,88,cs),
(44,60,o),
(61,34,o),
(100,16,cs),
(125,5,o),
(153,0,o),
(180,0,cs),
(231,0,o),
(289,25,o),
(301,90,cs),
(307,132,o),
(290,164,o),
(268,183,cs),
(253,197,o),
(224,215,o),
(199,232,cs),
(180,245,o),
(174,248,o),
(174,252,c),
(176,260,o),
(184,263,o),
(204,263,cs),
(224,263,o),
(238,257,o),
(249,252,cs),
(267,242,o),
(308,240,o),
(322,264,cs),
(340,293,o),
(324,319,o),
(285,337,cs),
(259,350,o),
(230,354,o),
(204,354,cs),
(141,354,o),
(85,319,o),
(75,260,cs),
(67,211,o),
(114,175,o),
(142,158,cs),
(165,143,o),
(184,132,o),
(196,122,cs),
(203,117,o),
(205,113,o),
(203,105,cs),
(202,95,o),
(197,94,o),
(179,92,c)
);
}
);
width = 363;
}
);
metricLeft = o;
metricRight = g;
unicode = 115;
},
{
glyphname = t;
lastChange = "2022-03-01 23:09:42 +0000";
layers = (
{
layerId = m01;
shapes = (
{
closed = 1;
nodes = (
(296,305,o),
(302,316,o),
(302,328,cs),
(302,340,o),
(296,350,o),
(276,350,cs),
(63,350,ls),
(43,350,o),
(37,340,o),
(37,328,cs),
(37,316,o),
(43,305,o),
(63,305,cs),
(276,305,ls)
);
},
{
closed = 1;
nodes = (
(112,146,ls),
(99,74,o),
(102,0,o),
(172,0,cs),
(205,0,o),
(218,17,o),
(239,50,cs),
(258,79,o),
(261,86,o),
(261,94,cs),
(261,109,o),
(249,116,o),
(238,116,cs),
(226,116,o),
(218,108,o),
(215,104,cs),
(200,81,ls),
(186,59,o),
(178,50,o),
(171,50,cs),
(157,50,o),
(151,77,o),
(161,134,cs),
(247,624,ls),
(250,640,o),
(236,650,o),
(222,650,cs),
(211,650,o),
(200,644,o),
(197,629,cs)
);
}
);
width = 321;
},
{
layerId = m002;
shapes = (
{
closed = 1;
nodes = (
(318,267,o),
(336,287,o),
(336,311,cs),
(336,336,o),
(318,354,o),
(287,354,cs),
(100,354,ls),
(69,354,o),
(50,336,o),
(50,311,cs),
(50,287,o),
(69,267,o),
(100,267,cs),
(287,267,ls)
);
},
{
closed = 1;
nodes = (
(116,156,ls),
(101,69,o),
(118,0,o),
(196,0,cs),
(234,0,o),
(254,18,o),
(277,56,cs),
(298,87,o),
(300,95,o),
(300,106,cs),
(300,133,o),
(277,150,o),
(253,150,cs),
(234,150,o),
(219,139,o),
(210,128,c),
(197,108,ls),
(187,92,o),
(187,92,o),
(195,92,cs),
(205,92,o),
(205,92,o),
(213,137,cs),
(287,565,l),
(294,595,o),
(268,617,o),
(239,617,cs),
(218,617,o),
(196,605,o),
(191,579,cs)
);
}
);
width = 360;
}
);
metricRight = g;
unicode = 116;
},
{
glyphname = u;
lastChange = "2022-03-01 23:09:42 +0000";
layers = (
{
layerId = m01;
shapes = (
{
closed = 1;
nodes = (
(239,146,ls),
(227,77,o),
(230,0,o),
(300,0,cs),
(333,0,o),
(346,17,o),
(367,50,cs),
(386,79,o),
(389,86,o),
(389,94,cs),
(389,109,o),
(377,116,o),
(366,116,cs),
(354,116,o),
(346,108,o),
(343,104,cs),
(328,81,ls),
(314,59,o),
(306,50,o),
(299,50,cs),
(285,50,o),
(278,81,o),
(287,132,cs),
(322,327,ls),
(323,335,o),
(322,350,o),
(300,350,cs),
(274,350,o),
(272,332,o),
(271,327,cs)
);
},
{
closed = 1;
nodes = (
(36,122,o),
(35,108,o),
(35,94,cs),
(35,19,o),
(60,-5,o),
(100,-5,cs),
(155,-5,o),
(204,36,o),
(242,92,c),
(269,250,l),
(260,250,l),
(259,249,o),
(259,247,o),
(259,246,cs),
(248,186,o),
(169,45,o),
(112,45,cs),
(85,45,o),
(85,76,o),
(85,104,cs),
(85,112,o),
(86,121,o),
(87,129,cs),
(124,327,ls),
(125,335,o),
(124,350,o),
(102,350,cs),
(76,350,o),
(74,332,o),
(73,327,cs),
(38,135,ls)
);
}
);
width = 414;
},
{
layerId = m002;
shapes = (
{
closed = 1;
nodes = (
(231,156,ls),
(217,71,o),
(233,0,o),
(311,0,cs),
(350,0,o),
(370,18,o),
(393,56,cs),
(414,87,o),
(416,95,o),
(416,106,cs),
(416,133,o),
(393,150,o),
(369,150,cs),
(350,150,o),
(335,139,o),
(326,128,c),
(313,108,ls),
(303,92,o),
(303,92,o),
(311,92,cs),
(319,92,o),
(319,92,o),
(327,136,cs),
(358,306,l),
(361,331,o),
(346,354,o),
(311,354,cs),
(276,354,o),
(263,332,o),
(259,314,cs)
);
},
{
closed = 1;
nodes = (
(53,133,o),
(53,119,o),
(53,106,cs),
(53,28,o),
(85,-4,o),
(136,-4,cs),
(200,-4,o),
(251,43,o),
(287,97,c),
(315,267,l),
(249,267,l),
(249,250,o),
(249,244,o),
(249,241,c),
(238,191,o),
(180,87,o),
(147,87,cs),
(156,87,o),
(150,87,o),
(150,115,cs),
(150,121,o),
(151,127,o),
(152,133,cs),
(184,306,l),
(187,331,o),
(171,354,o),
(138,354,cs),
(101,354,o),
(90,332,o),
(86,315,cs),
(55,146,ls)
);
}
);
width = 454;
}
);
metricLeft = n;
metricRight = n;
unicode = 117;
},
{
glyphname = v;
lastChange = "2022-03-01 23:09:42 +0000";
layers = (
{
layerId = m01;
shapes = (
{
closed = 1;
nodes = (
(285,285,l),
(301,270,ls),
(309,262,o),
(321,255,o),
(333,257,cs),
(343,259,o),
(352,266,o),
(353,278,cs),
(354,285,o),
(352,292,o),
(343,301,cs),
(295,347,l)
);
},
{
closed = 1;
nodes = (
(295,347,l),
(290,351,o),
(279,351,o),
(273,349,cs),
(266,346,o),
(261,341,o),
(257,334,cs),
(123,75,l),
(122,0,l),
(138,0,o),
(143,4,o),
(149,16,cs),
(295,298,l)
);
},
{
closed = 1;
nodes = (
(120,350,o),
(101,352,o),
(89,348,cs),
(75,343,o),
(71,330,o),
(72,320,cs),
(97,19,ls),
(98,6,o),
(109,0,o),
(123,0,c),
(142,75,l),
(122,328,l)
);
}
);
width = 345;
},
{
layerId = m002;
shapes = (
{
closed = 1;
nodes = (
(268,265,l),
(292,243,ls),
(306,229,o),
(327,222,o),
(346,226,cs),
(366,231,o),
(382,245,o),
(383,265,cs),
(385,280,o),
(380,293,o),
(367,304,c),
(287,382,l)
);
},
{
closed = 1;
nodes = (
(333,341,l),
(309,355,o),
(290,356,o),
(277,352,cs),
(264,347,o),
(255,338,o),
(248,327,c),
(128,95,l),
(127,3,l),
(160,-4,o),
(188,-1,o),
(202,27,cs),
(333,280,l)
);
},
{
closed = 1;
nodes = (
(179,349,o),
(141,360,o),
(114,351,c),
(92,341,o),
(82,322,o),
(84,302,cs),
(105,39,ls),
(108,7,o),
(145,-7,o),
(177,4,c),
(199,88,l),
(181,313,ls)
);
}
);
width = 392;
}
);
metricLeft = n;
metricRight = o;
unicode = 118;
},
{
glyphname = w;
lastChange = "2022-03-01 23:09:42 +0000";
layers = (
{
layerId = m01;
shapes = (
{
closed = 1;
nodes = (
(551,285,l),
(567,270,ls),
(575,262,o),
(587,255,o),
(599,257,cs),
(609,259,o),
(618,266,o),
(619,278,cs),
(620,285,o),
(618,292,o),
(609,301,cs),
(562,347,l)
);
},
{
closed = 1;
nodes = (
(316,350,l),
(303,350,o),
(296,344,o),
(290,334,cs),
(126,72,l),
(122,0,l),
(138,0,o),
(143,4,o),
(150,16,cs),
(312,276,l)
);
},
{
closed = 1;
nodes = (
(120,350,o),
(101,352,o),
(89,348,cs),
(75,343,o),
(71,330,o),
(72,320,cs),
(98,18,ls),
(99,5,o),
(109,0,o),
(123,0,c),
(143,74,l),
(122,328,ls)
);
},
{
closed = 1;
nodes = (
(562,347,l),
(557,351,o),
(546,351,o),
(540,349,cs),
(533,346,o),
(528,341,o),
(524,334,cs),
(359,72,l),
(356,0,l),
(372,0,o),
(377,4,o),
(384,16,cs),
(560,298,l)
);
},
{
closed = 1;
nodes = (
(337,344,o),
(325,350,o),
(315,350,c),
(296,277,l),
(332,18,ls),
(334,5,o),
(343,0,o),
(357,0,c),
(375,74,l),
(339,328,ls)
);
}
);
width = 611;
},
{
layerId = m002;
shapes = (
{
closed = 1;
nodes = (
(501,265,l),
(526,242,ls),
(541,229,o),
(560,222,o),
(578,226,cs),
(598,230,o),
(615,244,o),
(617,265,cs),
(619,278,o),
(614,291,o),
(601,303,cs),
(522,382,l)
);
},
{
closed = 1;
nodes = (
(353,349,l),
(324,360,o),
(293,354,o),
(278,327,c),
(131,94,l),
(127,3,l),
(165,-4,o),
(187,1,o),
(202,25,cs),
(348,259,l)
);
},
{
closed = 1;
nodes = (
(178,352,o),
(137,359,o),
(115,351,cs),
(92,341,o),
(82,321,o),
(84,302,cs),
(107,38,ls),
(110,6,o),
(145,-6,o),
(178,3,c),
(200,87,l),
(182,313,ls)
);
},
{
closed = 1;
nodes = (
(568,339,l),
(545,356,o),
(522,356,o),
(510,351,cs),
(500,347,o),
(489,339,o),
(483,327,c),
(335,94,l),
(332,3,l),
(370,-4,o),
(392,1,o),
(407,25,cs),
(565,278,l)
);
},
{
closed = 1;
nodes = (
(367,351,o),
(325,362,o),
(301,348,c),
(280,267,l),
(312,38,ls),
(315,6,o),
(348,-6,o),
(384,3,c),
(403,88,l),
(372,314,ls)
);
}
);
width = 626;
}
);
metricLeft = n;
metricRight = o;
unicode = 119;
},
{
glyphname = x;
lastChange = "2022-03-01 23:09:42 +0000";
layers = (
{
layerId = m01;
shapes = (
{
closed = 1;
nodes = (
(375,313,o),
(379,317,o),
(379,327,cs),
(379,333,o),
(377,339,o),
(372,344,cs),
(367,349,o),
(360,350,o),
(353,350,cs),
(346,349,o),
(339,346,o),
(334,341,c),
(27,44,l),
(20,36,o),
(18,28,o),
(19,21,cs),
(20,16,o),
(23,11,o),
(27,6,cs),
(31,2,o),
(36,0,o),
(43,0,cs),
(51,0,o),
(59,5,o),
(64,10,c),
(370,308,l)
);
},
{
closed = 1;
nodes = (
(113,345,o),
(107,350,o),
(99,350,cs),
(92,350,o),
(86,347,o),
(81,343,cs),
(76,339,o),
(73,333,o),
(72,327,cs),
(72,321,o),
(75,314,o),
(78,309,c),
(282,10,l),
(286,4,o),
(292,1,o),
(297,0,cs),
(304,-1,o),
(312,3,o),
(317,8,cs),
(322,13,o),
(326,20,o),
(326,27,cs),
(326,33,o),
(324,39,o),
(320,44,c),
(118,338,l)
);
}
);
width = 398;
},
{
layerId = m002;
shapes = (
{
closed = 1;
nodes = (
(400,285,o),
(408,293,o),
(408,310,cs),
(408,321,o),
(404,332,o),
(394,341,cs),
(386,350,o),
(370,355,o),
(355,354,cs),
(346,353,o),
(331,348,o),
(322,339,cs),
(54,80,ls),
(41,68,o),
(37,55,o),
(39,40,cs),
(40,30,o),
(45,23,o),
(52,14,cs),
(59,6,o),
(73,0,o),
(87,0,cs),
(101,0,o),
(118,7,o),
(126,18,c),
(392,277,ls)
);
},
{
closed = 1;
nodes = (
(165,347,o),
(150,354,o),
(136,354,cs),
(123,354,o),
(109,349,o),
(101,341,cs),
(92,334,o),
(87,325,o),
(85,312,cs),
(84,302,o),
(89,291,o),
(92,284,c),
(273,21,l),
(279,10,o),
(292,3,o),
(304,0,cs),
(319,-2,o),
(336,5,o),
(346,15,cs),
(356,24,o),
(361,36,o),
(361,48,cs),
(361,57,o),
(358,66,o),
(352,75,cs),
(174,333,ls)
);
}
);
width = 432;
}
);
metricLeft = n;
metricRight = g;
unicode = 120;
},
{
glyphname = y;
lastChange = "2022-03-01 23:09:42 +0000";
layers = (
{
layerId = m01;
shapes = (
{
closed = 1;
nodes = (
(36,122,o),
(35,108,o),
(35,94,cs),
(35,19,o),
(60,-5,o),
(100,-5,cs),
(155,-5,o),
(204,36,o),
(242,92,c),
(269,250,l),
(260,250,l),
(259,249,o),
(259,247,o),
(259,246,cs),
(248,186,o),
(169,45,o),
(112,45,cs),
(85,45,o),
(85,76,o),
(85,104,cs),
(85,112,o),
(86,121,o),
(87,129,cs),
(124,327,ls),
(125,335,o),
(124,350,o),
(102,350,cs),
(76,350,o),
(74,332,o),
(73,327,cs),
(38,135,ls)
);
},
{
closed = 1;
nodes = (
(195,-95,ls),
(187,-143,o),
(175,-195,o),
(143,-224,cs),
(124,-243,o),
(94,-250,o),
(60,-250,cs),
(45,-250,o),
(31,-246,o),
(18,-237,cs),
(6,-229,o),
(-8,-228,o),
(-18,-238,cs),
(-28,-248,o),
(-30,-263,o),
(-18,-272,cs),
(3,-288,o),
(28,-300,o),
(60,-300,cs),
(111,-300,o),
(148,-287,o),
(175,-263,cs),
(214,-228,o),
(233,-169,o),
(246,-95,cs),
(321,330,ls),
(323,342,o),
(312,350,o),
(298,350,cs),
(284,350,o),
(272,340,o),
(270,329,cs)
);
}
);
width = 339;
},
{
layerId = m002;
shapes = (
{
closed = 1;
nodes = (
(54,133,o),
(53,120,o),
(53,106,cs),
(53,28,o),
(86,-4,o),
(137,-4,cs),
(200,-4,o),
(252,43,o),
(287,97,c),
(316,267,l),
(267,267,l),
(253,258,o),
(250,249,o),
(249,242,cs),
(238,192,o),
(180,87,o),
(147,87,cs),
(151,87,o),
(151,87,o),
(151,115,cs),
(151,122,o),
(151,128,o),
(152,134,cs),
(185,307,l),
(188,331,o),
(173,354,o),
(138,354,cs),
(103,354,o),
(90,332,o),
(86,315,cs),
(55,145,l)
);
},
{
closed = 1;
nodes = (
(193,-55,ls),
(186,-98,o),
(177,-137,o),
(154,-155,c),
(143,-168,o),
(128,-171,o),
(102,-171,cs),
(94,-171,o),
(89,-170,o),
(81,-164,cs),
(60,-149,o),
(27,-151,o),
(11,-171,cs),
(-4,-189,o),
(-7,-214,o),
(15,-232,cs),
(36,-248,o),
(65,-263,o),
(102,-263,cs),
(152,-263,o),
(193,-248,o),
(220,-224,cs),
(261,-188,o),
(279,-130,o),
(291,-63,cs),
(357,309,ls),
(362,334,o),
(338,354,o),
(310,354,cs),
(286,354,o),
(263,338,o),
(258,316,cs)
);
}
);
width = 380;
}
);
metricLeft = n;
metricRight = g;
unicode = 121;
},
{
glyphname = z;
lastChange = "2022-03-01 23:09:42 +0000";
layers = (
{
layerId = m01;
shapes = (
{
closed = 1;
nodes = (
(375,313,o),
(379,317,o),
(379,327,cs),
(379,333,o),
(377,339,o),
(372,344,cs),
(367,349,o),
(360,350,o),
(353,350,cs),
(346,349,o),
(339,346,o),
(334,341,c),
(27,44,ls),
(19,37,o),
(18,28,o),
(19,21,cs),
(20,16,o),
(23,11,o),
(27,6,cs),
(31,2,o),
(36,0,o),
(43,0,cs),
(51,0,o),
(59,5,o),
(64,10,c),
(370,308,l)
);
},
{
closed = 1;
nodes = (
(300,0,ls),
(320,0,o),
(326,13,o),
(326,25,cs),
(326,37,o),
(320,50,o),
(300,50,cs),
(90,50,l),
(41,0,l)
);
},
{
closed = 1;
nodes = (
(355,350,l),
(98,350,ls),
(78,350,o),
(72,337,o),
(72,325,cs),
(72,313,o),
(78,300,o),
(98,300,cs),
(308,300,l)
);
}
);
width = 398;
},
{
layerId = m002;
shapes = (
{
closed = 1;
nodes = (
(403,285,o),
(411,293,o),
(411,310,cs),
(411,321,o),
(407,332,o),
(397,341,cs),
(389,350,o),
(373,355,o),
(358,354,cs),
(349,353,o),
(334,348,o),
(325,339,cs),
(57,80,ls),
(44,68,o),
(40,55,o),
(42,40,cs),
(43,30,o),
(48,23,o),
(55,14,cs),
(62,6,o),
(76,0,o),
(90,0,cs),
(104,0,o),
(121,7,o),
(129,18,c),
(395,277,ls)
);
},
{
closed = 1;
nodes = (
(314,0,ls),
(346,0,o),
(364,21,o),
(364,46,cs),
(364,70,o),
(346,92,o),
(314,92,cs),
(119,92,l),
(29,0,l)
);
},
{
closed = 1;
nodes = (
(422,354,l),
(138,354,ls),
(106,354,o),
(88,333,o),
(88,308,cs),
(88,284,o),
(106,263,o),
(138,263,cs),
(333,263,l)
);
}
);
width = 437;
}
);
metricLeft = n;
metricRight = g;
unicode = 122;
},
